<svg width="940" height="939" xmlns="http://www.w3.org/2000/svg" xmlns:xlink="http://www.w3.org/1999/xlink" xml:space="preserve" overflow="hidden"><defs><clipPath id="clip0"><rect x="1730" y="768" width="940" height="939"/></clipPath></defs><g clip-path="url(#clip0)" transform="translate(-1730 -768)"><rect x="1730" y="768" width="940" height="939" fill="#000000" fill-opacity="0"/><path d="M1957.74 1209.34 1957.74 1284.44C2009.49 1284.44 2052.66 1321.14 2062.65 1369.94L2064.82 1391.52 2139.92 1391.52 2136.22 1354.8C2119.23 1271.79 2045.78 1209.34 1957.74 1209.34ZM1957.74 1058.17 1957.74 1133.18C2082.59 1133.18 2186.74 1221.73 2210.83 1339.45L2216.08 1391.52 2291.09 1391.52 2289.37 1357.43C2272.3 1189.34 2130.34 1058.17 1957.74 1058.17ZM1957.74 907 1957.74 981.916C2169.82 981.916 2344.25 1143.09 2365.22 1349.64L2367.34 1391.52 2442.26 1391.52 2439.76 1341.98C2414.94 1097.66 2208.61 907 1957.74 907ZM1850.75 787 2549.25 787C2615.94 787 2670 841.064 2670 907.755L2670 1390.76C2670 1457.45 2615.94 1511.52 2549.25 1511.52L2057.13 1511.52 1880.65 1688 1880.65 1511.52 1850.75 1511.52C1784.06 1511.52 1730 1457.45 1730 1390.76L1730 907.755C1730 841.064 1784.06 787 1850.75 787Z" fill-rule="evenodd"/></g></svg>