<svg width="1299" height="1299" xmlns="http://www.w3.org/2000/svg" xmlns:xlink="http://www.w3.org/1999/xlink" xml:space="preserve" overflow="hidden"><defs><clipPath id="clip0"><rect x="0" y="0" width="1299" height="1299"/></clipPath></defs><g clip-path="url(#clip0)"><rect x="0" y="0" width="1299" height="1299" fill="#FFFFFF" fill-opacity="0"/><path d="M649.5 288.924C450.359 288.924 288.923 450.359 288.923 649.5 288.923 848.641 450.359 1010.08 649.5 1010.08 848.641 1010.08 1010.08 848.641 1010.08 649.5 1010.08 450.359 848.641 288.924 649.5 288.924ZM818.518 0.010681C829.192-0.161995 840.077 1.75524 850.598 6.00605L951.851 46.9148C993.936 63.9183 1014.27 111.819 997.265 153.904L962.316 240.405 977.42 251.699C991.741 263.518 1005.41 276.096 1018.38 289.371L1053.48 329.418 1138.95 293.14C1180.73 275.404 1228.98 294.898 1246.72 336.679L1289.39 437.203C1307.12 478.984 1287.63 527.233 1245.85 544.968L1160.12 581.356 1161.66 590.304C1163.88 609.729 1165.02 629.481 1165.02 649.5 1165.02 667.295 1164.12 684.879 1162.36 702.209L1161.36 708.773 1247.58 743.609C1289.66 760.612 1310 808.513 1292.99 850.597L1252.09 951.85C1235.08 993.935 1187.18 1014.27 1145.1 997.264L1058.6 962.316 1047.3 977.419C1035.48 991.741 1022.9 1005.41 1009.63 1018.38L969.583 1053.48 1005.86 1138.95C1023.6 1180.73 1004.1 1228.98 962.322 1246.72L861.798 1289.39C820.016 1307.12 771.768 1287.63 754.033 1245.85L717.645 1160.12 708.696 1161.66C689.271 1163.88 669.519 1165.02 649.5 1165.02 631.705 1165.02 614.121 1164.12 596.791 1162.36L590.226 1161.36 555.39 1247.58C538.387 1289.66 490.486 1310 448.402 1292.99L347.149 1252.09C305.064 1235.08 284.731 1187.18 301.735 1145.1L336.683 1058.6 321.58 1047.3C307.259 1035.48 293.586 1022.9 280.624 1009.63L245.515 969.582 160.048 1005.86C118.266 1023.6 70.0178 1004.1 52.2825 962.321L9.61288 861.797C-8.12244 820.016 11.3712 771.768 53.1528 754.032L138.879 717.644 137.34 708.696C135.119 689.272 133.978 669.519 133.978 649.5 133.978 631.706 134.88 614.121 136.64 596.791L137.642 590.226 51.4202 555.391C9.3354 538.387-10.9972 490.487 6.00605 448.402L46.9149 347.149C63.9183 305.064 111.819 284.732 153.904 301.735L240.405 336.684 251.698 321.581C263.518 307.259 276.095 293.587 289.37 280.625L329.417 245.516 293.138 160.049C275.403 118.268 294.896 70.0193 336.678 52.284L437.201 9.61443C447.647 5.18072 458.496 3.07367 469.172 3.05988 501.2 3.01893 531.665 21.8181 544.967 53.1543L581.355 138.879 590.304 137.341C609.728 135.12 629.481 133.979 649.5 133.979 667.295 133.979 684.879 134.88 702.209 136.64L708.773 137.642 743.609 51.42C756.362 19.8564 786.494 0.528486 818.518 0.010681Z" fill="#141414" fill-rule="evenodd"/></g></svg>