<svg width="1299" height="1299" xmlns="http://www.w3.org/2000/svg" xmlns:xlink="http://www.w3.org/1999/xlink" xml:space="preserve" overflow="hidden"><defs><clipPath id="clip0"><rect x="0" y="0" width="1299" height="1299"/></clipPath></defs><g clip-path="url(#clip0)"><rect x="-1.54596e-13" y="0" width="1299" height="1299" fill="#FFFFFF" fill-opacity="0"/><path d="M584.481 157.453C548.463 121.434 548.463 63.0366 584.481 27.0181L584.481 27.0181C620.5-9.00053 678.897-9.00059 714.916 27.0179L1133.74 445.843C1169.76 481.862 1169.76 540.259 1133.74 576.278L1133.74 576.277C1097.72 612.295 1039.32 612.296 1003.31 576.277Z" fill="#141414" fill-rule="evenodd"/><path d="M584.481 27.0185C620.5-8.99999 678.897-8.99993 714.916 27.0186L714.916 27.0186C750.934 63.0372 750.934 121.435 714.916 157.453L296.09 576.278C260.072 612.296 201.674 612.296 165.656 576.277L165.657 576.277C129.638 540.259 129.638 481.861 165.657 445.843Z" fill="#141414" fill-rule="evenodd"/><path d="M557 92.4999C557 41.4136 598.414-1.65348e-14 649.5-3.30696e-14L649.5 0C700.586-1.65348e-14 742 41.4136 742 92.4999L742 946.5C742 997.587 700.586 1039 649.5 1039L649.5 1039C598.414 1039 557 997.587 557 946.5Z" fill="#141414" fill-rule="evenodd"/><path d="M192 1299C141.19 1299 100 1257.81 100 1207L100 1207C100 1156.19 141.19 1115 192 1115L1107 1115C1157.81 1115 1199 1156.19 1199 1207L1199 1207C1199 1257.81 1157.81 1299 1107 1299Z" fill="#141414" fill-rule="evenodd"/></g></svg>