<svg width="1299" height="1299" xmlns="http://www.w3.org/2000/svg" xmlns:xlink="http://www.w3.org/1999/xlink" xml:space="preserve" overflow="hidden"><defs><clipPath id="clip0"><rect x="0" y="0" width="1299" height="1299"/></clipPath></defs><g clip-path="url(#clip0)"><rect x="-1.54596e-13" y="0" width="1299" height="1299" fill="#FFFFFF" fill-opacity="0"/><path d="M714.914 881.882C750.933 917.901 750.933 976.298 714.914 1012.32L714.914 1012.32C678.896 1048.34 620.498 1048.34 584.479 1012.32L165.655 593.492C129.637 557.473 129.637 499.076 165.655 463.057L165.655 463.058C201.674 427.04 260.071 427.04 296.09 463.058Z" fill="#141414" fill-rule="evenodd"/><path d="M714.914 1012.32C678.896 1048.34 620.498 1048.33 584.479 1012.32L584.479 1012.32C548.461 976.298 548.461 917.9 584.479 881.882L1003.3 463.057C1039.32 427.039 1097.72 427.039 1133.74 463.058L1133.74 463.058C1169.76 499.076 1169.76 557.474 1133.74 593.492Z" fill="#141414" fill-rule="evenodd"/><path d="M742 946.5C742 997.586 700.586 1039 649.5 1039L649.5 1039C598.414 1039 557 997.586 557 946.5L557 92.4998C557 41.4135 598.414 0 649.5 0L649.5 0C700.586 0 742 41.4135 742 92.4998Z" fill="#141414" fill-rule="evenodd"/><path d="M192 1299C141.19 1299 100 1257.81 100 1207L100 1207C100 1156.19 141.19 1115 192 1115L1107 1115C1157.81 1115 1199 1156.19 1199 1207L1199 1207C1199 1257.81 1157.81 1299 1107 1299Z" fill="#141414" fill-rule="evenodd"/></g></svg>