<svg width="1299" height="1299" xmlns="http://www.w3.org/2000/svg" xmlns:xlink="http://www.w3.org/1999/xlink" xml:space="preserve" overflow="hidden"><defs><clipPath id="clip0"><rect x="0" y="0" width="1299" height="1299"/></clipPath></defs><g clip-path="url(#clip0)"><rect x="0" y="0" width="1299" height="1299" fill="#FFFFFF" fill-opacity="0"/><path d="M92.4998 742C41.4136 742-2.82801e-14 700.586-3.76645e-14 649.5L-1.6992e-14 649.5C-4.70489e-14 598.414 41.4136 557 92.4998 557L1206.5 557C1257.59 557 1299 598.414 1299 649.5L1299 649.5C1299 700.586 1257.59 742 1206.5 742Z" fill="#141414" fill-rule="evenodd"/><path d="M92.4996 371C41.4134 371-0.000180446 329.586-0.000180446 278.5L-0.000180446 278.5C-0.000180446 227.414 41.4134 186 92.4996 186L1206.5 186C1257.59 186 1299 227.414 1299 278.5L1299 278.5C1299 329.586 1257.59 371 1206.5 371Z" fill="#141414" fill-rule="evenodd"/><path d="M92.4996 1113C41.4134 1113-0.000180446 1071.59-0.000180446 1020.5L-0.000180446 1020.5C-0.000180446 969.414 41.4134 928 92.4996 928L1206.5 928C1257.59 928 1299 969.414 1299 1020.5L1299 1020.5C1299 1071.59 1257.59 1113 1206.5 1113Z" fill="#141414" fill-rule="evenodd"/></g></svg>