<svg width="1299" height="1299" xmlns="http://www.w3.org/2000/svg" xmlns:xlink="http://www.w3.org/1999/xlink" xml:space="preserve" overflow="hidden"><defs><clipPath id="clip0"><rect x="0" y="0" width="1299" height="1299"/></clipPath></defs><g clip-path="url(#clip0)"><rect x="0" y="0" width="1299" height="1299" fill="#FFFFFF" fill-opacity="0"/><path d="M846.853 315.468 505.315 512.599 777.754 984.342 1119.29 787.211ZM879.938 136 879.952 136.003 894.309 138.411 896.264 139.141 897.806 139.438 901.109 140.949 907.961 143.507 911.691 145.793 914.386 147.027 916.67 148.844 920.475 151.176 925.9 156.19 928.864 158.549 929.831 159.823 931.436 161.307 940.422 173.783 940.425 173.787 940.425 173.787 940.425 173.787 962.722 212.396 991.384 195.852C1027.71 174.885 1074.16 187.328 1095.13 223.643 1116.1 259.958 1103.66 306.394 1067.33 327.361L1038.67 343.904 1288.81 777.035 1288.81 777.039 1288.81 777.039 1288.81 777.04 1290.28 780.295 1295.13 791.062 1295.13 791.063C1306.3 824.567 1292.8 862.412 1261.01 880.758L1261.01 880.758 1261.01 880.761 787.938 1153.81 787.929 1153.82 787.929 1153.82C751.604 1174.78 705.154 1162.34 684.182 1126.02L381.432 601.796 153 540.605 429.367 381.09 429.367 381.09 836.678 145.996 836.685 145.993 850.705 139.681 855.648 138.563 857.944 137.663 860.467 137.472 865.264 136.386 879.93 136.001Z" fill="#141414" fill-rule="evenodd"/><path d="M163 659 278.259 774.4C341.914 838.133 341.914 941.466 278.259 1005.2 214.603 1068.93 111.397 1068.93 47.7416 1005.2-15.9137 941.466-15.9137 838.133 47.7416 774.4Z" fill="#141414" fill-rule="evenodd"/></g></svg>