<svg width="1299" height="1299" xmlns="http://www.w3.org/2000/svg" xmlns:xlink="http://www.w3.org/1999/xlink" xml:space="preserve" overflow="hidden"><defs><clipPath id="clip0"><rect x="0" y="0" width="1299" height="1299"/></clipPath></defs><g clip-path="url(#clip0)"><rect x="0" y="0" width="1299" height="1299" fill="#FFFFFF" fill-opacity="0"/><path d="M92.4998 742C41.4136 742-2.82801e-14 700.586-3.76645e-14 649.5L-1.6992e-14 649.5C-4.70489e-14 598.414 41.4136 557 92.4998 557L1206.5 557C1257.59 557 1299 598.414 1299 649.5L1299 649.5C1299 700.586 1257.59 742 1206.5 742Z" fill="#141414" fill-rule="evenodd"/><path d="M557 92.4998C557 41.4136 598.414-2.06725e-14 649.5-2.06725e-14L649.5 0C700.586-2.06725e-14 742 41.4136 742 92.4998L742 1206.5C742 1257.59 700.586 1299 649.5 1299L649.5 1299C598.414 1299 557 1257.59 557 1206.5Z" fill="#141414" fill-rule="evenodd"/></g></svg>