<svg width="3032" height="1299" xmlns="http://www.w3.org/2000/svg" xmlns:xlink="http://www.w3.org/1999/xlink" xml:space="preserve" overflow="hidden"><defs><clipPath id="clip0"><rect x="-866" y="0" width="3032" height="1299"/></clipPath></defs><g clip-path="url(#clip0)" transform="translate(866 0)"><rect x="-866" y="0" width="3032" height="1299" fill="#FFFFFF"/><path d="M-146 438-146 438-146 438-135.09 438.276C-23.0761 443.954 66 536.574 66 650 66 763.426-23.0761 856.046-135.09 861.724L-146 862-146 862-146 862C-146 748.575-56.924 655.954 55.0903 650.276L65.9995 650 55.0903 649.724C-56.924 644.046-146 551.425-146 438ZM278 438 278 438 278 438C278 551.425 188.924 644.046 76.9098 649.724L66.0005 650 76.9098 650.276C188.924 655.954 278 748.575 278 862L278 862 278 862 267.09 861.724C155.076 856.046 66 763.426 66 650 66 536.574 155.076 443.954 267.09 438.276Z" fill="#8516C4" fill-rule="evenodd"/><path d="M906.748 625.598C899.959 625.598 893.619 626.943 887.729 629.634 881.839 632.325 876.747 636.161 872.454 641.144 868.161 646.127 864.816 652.007 862.42 658.783 860.024 665.56 858.826 673.134 858.826 681.505 858.826 689.876 860.024 697.45 862.42 704.227 864.816 711.004 868.161 716.883 872.454 721.866 876.747 726.849 881.839 730.686 887.729 733.376 893.619 736.067 899.959 737.413 906.748 737.413 913.537 737.413 919.877 736.167 925.767 733.675 931.657 731.184 936.749 727.546 941.042 722.763 945.335 717.98 948.68 712.1 951.075 705.124 953.472 698.148 954.67 690.275 954.67 681.505 954.67 672.735 953.472 664.863 951.075 657.887 948.68 650.911 945.335 645.031 941.042 640.248 936.749 635.464 931.657 631.826 925.767 629.335 919.877 626.844 913.537 625.598 906.748 625.598ZM539.88 597.794 580.614 597.794 621.946 696.753 627.637 713.196 633.328 697.052 675.858 597.794 716.592 597.794 617.154 828 576.421 828 607.87 755.351ZM821.287 593.608 821.287 627.392C808.708 626.794 797.826 629.833 788.641 636.51 779.456 643.187 773.565 652.007 770.97 662.969 770.171 666.158 769.522 670.443 769.023 675.825 768.524 681.206 768.274 687.983 768.274 696.155L768.274 765.217 729.937 765.217 729.937 597.794 768.274 597.794 768.274 611.846C775.263 605.268 783.4 600.584 792.684 597.794 801.969 595.003 811.503 593.608 821.287 593.608ZM906.748 593.309C915.733 593.309 924.519 594.904 933.105 598.093 941.691 601.282 948.979 605.766 954.969 611.546L954.969 597.794 993.307 597.794 993.307 765.217 954.969 765.217 954.969 749.371C949.578 755.749 942.439 760.732 933.554 764.32 924.669 767.907 915.733 769.701 906.748 769.701 894.168 769.701 882.637 767.558 872.154 763.273 861.672 758.988 852.586 753.009 844.899 745.335 837.212 737.661 831.221 728.393 826.928 717.531 822.635 706.669 820.489 694.66 820.489 681.505 820.489 668.351 822.635 656.342 826.928 645.479 831.221 634.617 837.212 625.349 844.899 617.675 852.586 610.002 861.672 604.023 872.154 599.737 882.637 595.452 894.168 593.309 906.748 593.309ZM1038.1 538.299 1077.64 538.299 1077.64 677.619C1077.64 686.787 1078.88 695.059 1081.38 702.433 1083.88 709.808 1087.37 716.086 1091.86 721.268 1096.35 726.45 1101.7 730.437 1107.89 733.227 1114.08 736.017 1120.76 737.413 1127.95 737.413 1135.14 737.413 1141.83 736.017 1148.02 733.227 1154.21 730.437 1159.55 726.45 1164.04 721.268 1168.54 716.086 1172.03 709.808 1174.53 702.433 1177.02 695.059 1178.27 686.787 1178.27 677.619L1178.27 538.299 1217.81 538.299 1217.81 677.619C1217.81 691.77 1215.61 704.576 1211.22 716.036 1206.82 727.497 1200.63 737.313 1192.65 745.484 1184.66 753.656 1175.18 759.935 1164.19 764.32 1153.21 768.704 1141.13 770.897 1127.95 770.897 1114.77 770.897 1102.69 768.704 1091.71 764.32 1080.73 759.935 1071.25 753.656 1063.26 745.484 1055.27 737.313 1049.08 727.497 1044.69 716.036 1040.3 704.576 1038.1 691.77 1038.1 677.619ZM1244.13 538 1288.46 538 1342.97 618.124 1397.78 538 1441.81 538 1364.53 648.918 1446 765.217 1401.67 765.217 1342.97 679.711 1284.26 765.217 1240.24 765.217 1321.1 648.918ZM385 538 424.536 538 424.536 731.732 542.243 731.732 542.243 765.217 385 765.217Z" fill-rule="evenodd"/></g></svg>