<svg width="3032" height="1299" xmlns="http://www.w3.org/2000/svg" xmlns:xlink="http://www.w3.org/1999/xlink" xml:space="preserve" overflow="hidden"><defs><clipPath id="clip0"><rect x="-866" y="0" width="3032" height="1299"/></clipPath></defs><g clip-path="url(#clip0)" transform="translate(866 0)"><rect x="-866" y="0" width="3032" height="1299" fill="#FFFFFF"/><g><g><g><path d="M-157.083 456C-120.825 456-85.424 459.677-51.2335 466.68L-32.2642 471.561-81.4039 466.604C-205.541 466.604-317.927 516.966-399.277 598.39L-422.567 626.642-523.927 606.219C-528.622 592.742-534.565 602.462-450.74 545.78-366.914 489.097-265.86 456-157.083 456Z" stroke="#5D18E6" stroke-width="9.85849" stroke-linecap="round" stroke-linejoin="round" stroke-miterlimit="10" fill="#5D18E6" fill-rule="evenodd" transform="matrix(1 0 0 1.00102 197.226 181.912)"/><path d="M86.8773 495.434C108.201 495.434 129.272 496.513 150.039 498.619L202.906 506.676 189.834 506.017C47.6792 506.017-81.0189 563.557-174.178 656.584L-235.928 731.321-372.814 703.803C-378.461 692.177-366.94 693.094-349.936 676.115-238.146 564.481-83.7083 495.434 86.8773 495.434Z" stroke="#5D18E6" stroke-width="9.85849" stroke-linecap="round" stroke-linejoin="round" stroke-miterlimit="10" fill="#5D18E6" fill-rule="evenodd" transform="matrix(1 0 0 1.00102 197.226 181.912)"/><path d="M-529.577 390.869-445.868 355.153-427.398 262.304-367.128 335.308-276.49 327.081-322.951 407.914-285.403 495.679-374.387 472.634-441.819 535.102-450.354 440.026-529.577 390.869Z" stroke="#FFFFFF" stroke-width="49.2925" stroke-linecap="round" stroke-linejoin="round" stroke-miterlimit="10" fill="none" fill-rule="evenodd" transform="matrix(1 0 0 1.00102 197.226 181.912)"/><path d="M-529.577 390.869-445.868 355.153-427.398 262.304-367.128 335.308-276.49 327.081-322.951 407.914-285.403 495.679-374.387 472.634-441.819 535.102-450.354 440.026-529.577 390.869Z" stroke="#000000" stroke-width="9.85849" stroke-linecap="round" stroke-linejoin="round" stroke-miterlimit="10" fill-rule="evenodd" transform="matrix(1 0 0 1.00102 197.226 181.912)"/><path d="M-279.93 221.078-245.382 228.699-218.557 203.505-215.992 240.216-185.465 258.097-218.428 273.165-226.385 309.41-249.323 282.012-284.768 286.531-265.981 254.53-279.93 221.078Z" stroke="#000000" stroke-width="9.85849" stroke-linecap="round" stroke-linejoin="round" stroke-miterlimit="10" fill-rule="evenodd" transform="matrix(1 0 0 1.00102 197.226 181.912)"/><path d="M1210.54 465.978 1183.6 469.568C1175.62 470.685 1169.63 472.82 1165.64 475.971 1161.65 479.122 1159.65 483.81 1159.65 490.032 1159.65 496.016 1161.53 500.744 1165.28 504.215 1169.03 507.685 1173.94 509.42 1180.01 509.42 1189.11 509.42 1196.47 506.308 1202.1 500.086 1207.73 493.862 1210.54 486.044 1210.54 476.629ZM577.087 465.978 550.147 469.568C542.164 470.685 536.178 472.82 532.188 475.971 528.196 479.122 526.201 483.81 526.201 490.032 526.201 496.016 528.076 500.744 531.828 504.215 535.579 507.685 540.489 509.42 546.555 509.42 555.654 509.42 563.017 506.308 568.645 500.086 574.273 493.862 577.087 486.044 577.087 476.629ZM1274.51 402.191 1303.01 402.191 1303.01 527.73 1274.51 527.73ZM807.729 402.191 839.334 402.191 868.551 489.554C869.031 490.989 869.505 492.805 869.985 494.999 870.465 497.193 870.982 499.687 871.541 502.479L872.143 502.479C872.458 500.803 872.882 498.929 873.398 496.854 873.914 494.779 874.574 492.426 875.377 489.793L905.669 402.191 934.284 402.191 876.811 550.469C872.344 562.118 866.214 570.973 858.434 577.037 850.648 583.1 841.327 586.132 830.472 586.132 827.282 586.132 824.249 585.933 821.374 585.534 818.506 585.135 815.709 584.576 812.992 583.858L818.262 561.718C820.018 562.357 821.696 562.816 823.295 563.095 824.887 563.374 826.608 563.513 828.436 563.513 833.068 563.513 837.061 562.318 840.417 559.923 843.765 557.53 846.482 553.9 848.554 549.033L857.653 527.492ZM1112 400.036C1114.24 400.036 1116.25 400.156 1118.05 400.395 1119.85 400.635 1121.62 400.993 1123.37 401.473L1119.67 426.126C1118.07 425.727 1116.53 425.408 1115.06 425.168 1113.58 424.93 1111.84 424.809 1109.84 424.809 1099.71 424.809 1091.93 428.579 1086.5 436.119 1081.07 443.658 1078.35 453.531 1078.35 465.738L1078.35 527.73 1049.74 527.73 1049.74 402.191 1078.35 402.191 1078.35 426.365 1078.83 426.365C1081.79 417.748 1086.12 411.206 1091.83 406.738 1097.53 402.27 1104.26 400.036 1112 400.036ZM795.275 400.036C797.512 400.036 799.527 400.156 801.32 400.395 803.119 400.635 804.89 400.993 806.647 401.473L802.94 426.126C801.341 425.727 799.807 425.408 798.33 425.168 796.853 424.93 795.118 424.809 793.117 424.809 782.979 424.809 775.2 428.579 769.773 436.119 764.345 443.658 761.628 453.531 761.628 465.738L761.628 527.73 733.013 527.73 733.013 402.191 761.628 402.191 761.628 426.365 762.108 426.365C765.062 417.748 769.392 411.206 775.1 406.738 780.807 402.27 787.532 400.036 795.275 400.036ZM703.321 400.036C705.557 400.036 707.572 400.156 709.368 400.395 711.164 400.635 712.94 400.993 714.695 401.473L710.984 426.126C709.388 425.727 707.851 425.408 706.375 425.168 704.898 424.93 703.163 424.809 701.166 424.809 691.03 424.809 683.246 428.579 677.819 436.119 672.391 443.658 669.678 453.531 669.678 465.738L669.678 527.73 641.061 527.73 641.061 402.191 669.678 402.191 669.678 426.365 670.156 426.365C673.11 417.748 677.44 411.206 683.147 406.738 688.855 402.27 695.579 400.036 703.321 400.036ZM1415.84 399.319C1429.65 399.239 1440.12 403.587 1447.26 412.363 1454.41 421.14 1457.98 433.985 1457.98 450.899L1457.98 527.73 1429.49 527.73 1429.49 456.882C1429.49 445.313 1427.35 436.598 1423.08 430.733 1418.81 424.869 1412.45 421.898 1403.99 421.817 1395.45 421.898 1388.4 425.148 1382.85 431.572 1377.31 437.994 1374.53 446.152 1374.53 456.044L1374.41 527.73 1346.03 527.73 1345.92 402.191 1374.53 402.191 1374.41 422.536 1374.89 422.536C1379.6 414.797 1385.37 408.992 1392.19 405.122 1399.02 401.253 1406.9 399.319 1415.84 399.319ZM1188.15 399.199C1204.91 399.199 1217.41 403.367 1225.62 411.704 1233.85 420.043 1237.95 432.509 1237.95 449.103L1237.95 527.73 1210.42 527.73 1210.42 508.702 1209.94 508.702C1205.71 516.041 1200.42 521.547 1194.07 525.217 1187.73 528.888 1180.44 530.723 1172.23 530.723 1160.73 530.723 1151.25 527.352 1143.79 520.61 1136.33 513.868 1132.59 504.672 1132.59 493.025 1132.59 481.855 1136.33 472.7 1143.79 465.559 1151.25 458.418 1162.37 453.771 1177.13 451.616L1210.54 447.188 1210.54 444.556C1210.54 436.1 1208.34 429.936 1203.95 426.066 1199.57 422.197 1193.54 420.261 1185.87 420.261 1179.96 420.261 1173.92 421.339 1167.73 423.493 1161.55 425.647 1155.58 428.918 1149.84 433.306L1137.51 416.312C1145.08 410.489 1153.01 406.18 1161.27 403.388 1169.53 400.595 1178.49 399.199 1188.15 399.199ZM554.696 399.199C571.458 399.199 583.95 403.367 592.172 411.704 600.393 420.043 604.505 432.509 604.505 449.103L604.505 527.73 576.966 527.73 576.966 508.702 576.487 508.702C572.257 516.041 566.969 521.547 560.623 525.217 554.277 528.888 546.994 530.723 538.773 530.723 527.278 530.723 517.8 527.352 510.336 520.61 502.873 513.868 499.142 504.672 499.142 493.025 499.142 481.855 502.873 472.7 510.336 465.559 517.8 458.418 528.915 453.771 543.681 451.616L577.087 447.188 577.087 444.556C577.087 436.1 574.891 429.936 570.5 426.066 566.111 422.197 560.084 420.261 552.422 420.261 546.515 420.261 540.468 421.339 534.282 423.493 528.097 425.647 522.13 428.918 516.383 433.306L504.051 416.312C511.633 410.489 519.556 406.18 527.818 403.388 536.078 400.595 545.038 399.199 554.696 399.199ZM994.424 365.091 994.31 402.191 1024.48 402.191 1024.48 424.45 994.424 424.33 994.31 491.23C994.31 497.452 995.442 501.921 997.715 504.633 999.995 507.345 1003.52 508.702 1008.31 508.702 1010.63 508.702 1012.82 508.423 1014.9 507.864 1016.97 507.306 1018.85 506.628 1020.53 505.83L1026.52 525.936C1022.92 527.451 1019.13 528.588 1015.14 529.346 1011.15 530.104 1006.88 530.483 1002.33 530.483 990.596 530.483 981.597 527.392 975.331 521.209 969.065 515.026 965.931 505.79 965.931 493.502L965.931 424.45 944.974 424.33 944.859 402.191 965.931 402.191 965.931 373.588ZM452.926 365.091 452.806 402.191 482.978 402.191 482.978 424.45 452.926 424.33 452.806 491.23C452.806 497.452 453.943 501.921 456.218 504.633 458.494 507.345 462.026 508.702 466.815 508.702 469.129 508.702 471.324 508.423 473.4 507.864 475.475 507.306 477.35 506.628 479.027 505.83L485.013 525.936C481.421 527.451 477.631 528.588 473.639 529.346 469.648 530.104 465.377 530.483 460.828 530.483 449.095 530.483 440.095 527.392 433.829 521.209 427.562 515.026 424.431 505.79 424.431 493.502L424.431 424.45 403.477 424.33 403.357 402.191 424.431 402.191 424.431 373.588ZM339.023 353.244C347.083 353.244 355.027 354.161 362.848 355.996 370.671 357.83 378.334 360.663 385.836 364.493L374.582 387.591C368.037 384.08 361.771 381.567 355.785 380.051 349.799 378.535 343.732 377.777 337.586 377.777 328.565 377.777 321.462 379.732 316.274 383.641 311.086 387.551 308.491 393.095 308.491 400.276 308.491 406.659 310.866 411.685 315.615 415.355 320.364 419.025 328.526 422.575 340.1 426.006 358.059 431.271 370.97 437.913 378.833 445.932 386.694 453.951 390.626 465.021 390.626 479.142 390.626 494.142 385.258 506.468 374.522 516.122 363.787 525.776 348.482 530.603 328.606 530.603 318.629 530.603 308.911 529.306 299.452 526.713 289.993 524.12 281.113 520.27 272.811 515.165L285.863 492.666C293.605 497.612 300.848 501.083 307.593 503.077 314.338 505.072 321.781 506.07 329.922 506.07 339.74 506.07 347.463 503.955 353.09 499.727 358.718 495.498 361.531 489.474 361.531 481.655 361.531 474.475 359.197 468.83 354.528 464.721 349.857 460.612 341.896 456.842 330.641 453.412 313.002 448.225 300.07 441.803 291.849 434.144 283.627 426.486 279.517 416.073 279.517 402.908 279.517 388.627 284.844 376.78 295.5 367.365 306.157 357.951 320.663 353.244 339.023 353.244ZM1289 345.943C1294.27 345.943 1298.6 347.559 1301.99 350.789 1305.39 354.021 1307.08 358.111 1307.08 363.056 1307.08 367.924 1305.39 371.972 1301.99 375.204 1298.6 378.436 1294.27 380.051 1289 380.051 1283.81 380.051 1279.52 378.415 1276.13 375.144 1272.74 371.872 1271.04 367.844 1271.04 363.056 1271.04 358.111 1272.74 354.021 1276.13 350.789 1279.52 347.559 1283.81 345.943 1289 345.943Z" stroke="#000000" stroke-width="3.28616" stroke-linecap="round" stroke-linejoin="round" stroke-miterlimit="10" fill-rule="evenodd" transform="matrix(1 0 0 1.00102 197.226 181.912)"/></g></g></g></g></svg>