<svg width="3032" height="1299" xmlns="http://www.w3.org/2000/svg" xmlns:xlink="http://www.w3.org/1999/xlink" xml:space="preserve" overflow="hidden"><defs><clipPath id="clip0"><rect x="-866" y="0" width="3032" height="1299"/></clipPath></defs><g clip-path="url(#clip0)" transform="translate(866 0)"><rect x="-866" y="0" width="3032" height="1299" fill="#FFFFFF"/><path d="M-419 438-419 438-418.999 438-408.09 438.276C-296.076 443.954-207 536.574-207 650-207 763.426-296.076 856.046-408.09 861.724L-418.999 862-419 862-419 862C-419 748.575-329.924 655.954-217.91 650.276L-207 650-217.91 649.724C-329.924 644.046-419 551.425-419 438ZM4.99963 438 4.99991 438 5.00015 438C5.00015 551.425-84.0759 644.046-196.09 649.724L-206.999 650-196.09 650.276C-84.0759 655.954 5.00015 748.575 5.00015 862L4.99991 862 4.99963 862-5.90961 861.724C-117.924 856.046-207 763.426-207 650-207 536.574-117.924 443.954-5.90961 438.276Z" fill="#8516C4" fill-rule="evenodd"/><path d="M1638.18 625.118C1628.13 625.118 1619.46 628.514 1612.17 635.306 1604.87 642.099 1600.04 651.401 1597.68 663.213L1678.98 663.213C1676.81 652.189 1672.18 643.083 1665.08 635.897 1657.99 628.711 1649.02 625.118 1638.18 625.118ZM1193.61 625.118C1187.1 625.118 1180.99 626.349 1175.28 628.81 1169.56 631.271 1164.53 634.765 1160.2 639.293 1155.86 643.822 1152.46 649.334 1150 655.831 1147.54 662.328 1146.3 669.514 1146.3 677.389 1146.3 685.461 1147.54 692.696 1150 699.094 1152.46 705.493 1155.86 710.956 1160.2 715.485 1164.53 720.013 1169.56 723.507 1175.28 725.968 1180.99 728.429 1187.1 729.66 1193.61 729.66 1200.11 729.66 1206.22 728.528 1211.93 726.264 1217.65 723.999 1222.67 720.653 1227.01 716.223 1231.35 711.793 1234.75 706.33 1237.21 699.833 1239.67 693.336 1240.91 685.854 1240.91 677.389 1240.91 668.923 1239.67 661.442 1237.21 654.945 1234.75 648.448 1231.35 642.984 1227.01 638.555 1222.67 634.125 1217.65 630.778 1211.93 628.514 1206.22 626.25 1200.11 625.118 1193.61 625.118ZM626.984 625.118C620.283 625.118 614.026 626.447 608.212 629.105 602.398 631.763 597.372 635.552 593.135 640.474 588.898 645.396 585.596 651.204 583.232 657.898 580.866 664.592 579.684 672.073 579.684 680.342 579.684 688.611 580.866 696.092 583.232 702.786 585.596 709.48 588.898 715.288 593.135 720.21 597.372 725.132 602.398 728.921 608.212 731.579 614.026 734.237 620.283 735.566 626.984 735.566 633.685 735.566 639.943 734.335 645.757 731.874 651.571 729.413 656.597 725.821 660.834 721.096 665.071 716.37 668.373 710.563 670.737 703.672 673.103 696.781 674.285 689.005 674.285 680.342 674.285 671.68 673.103 663.903 670.737 657.012 668.373 650.121 665.071 644.314 660.834 639.588 656.597 634.863 651.571 631.271 645.757 628.81 639.943 626.349 633.685 625.118 626.984 625.118ZM1309.69 597.654 1347.53 597.654 1347.53 763.031 1309.69 763.031ZM262.82 597.654 303.025 597.654 343.822 695.403 349.439 711.645 355.056 695.698 397.035 597.654 437.24 597.654 339.092 825.047 298.887 825.047 329.928 753.285ZM542.632 593.519 542.632 626.89C530.216 626.299 519.474 629.302 510.408 635.897 501.343 642.492 495.528 651.204 492.967 662.033 492.178 665.182 491.538 669.416 491.045 674.731 490.552 680.047 490.306 686.741 490.306 694.813L490.306 763.031 452.465 763.031 452.465 597.654 490.306 597.654 490.306 611.533C497.204 605.036 505.235 600.41 514.399 597.654 523.564 594.897 532.975 593.519 542.632 593.519ZM1638.18 593.224C1649.81 593.224 1660.5 595.291 1670.26 599.425 1680.01 603.56 1688.44 609.318 1695.53 616.701 1702.63 624.084 1708.15 632.845 1712.09 642.984 1716.03 653.123 1718 664.297 1718 676.503L1718 694.517 1597.98 694.517C1598.76 700.227 1600.39 705.542 1602.85 710.464 1605.32 715.386 1608.37 719.718 1612.02 723.458 1615.66 727.199 1619.95 730.152 1624.88 732.318 1629.8 734.483 1635.13 735.566 1640.84 735.566 1650.89 735.566 1660.11 732.712 1668.48 727.002 1676.86 721.292 1683.41 714.008 1688.14 705.149L1715.64 726.116C1707.36 738.716 1696.67 748.757 1683.56 756.238 1670.45 763.72 1656.21 767.46 1640.84 767.46 1628.62 767.46 1617.44 765.344 1607.29 761.111 1597.14 756.878 1588.42 750.972 1581.12 743.392 1573.83 735.812 1568.22 726.657 1564.27 715.928 1560.33 705.198 1558.36 693.336 1558.36 680.342 1558.36 667.348 1560.43 655.486 1564.57 644.756 1568.71 634.027 1574.37 624.872 1581.57 617.292 1588.76 609.712 1597.24 603.806 1606.99 599.573 1616.75 595.34 1627.14 593.224 1638.18 593.224ZM1464.65 593.224C1479.63 593.224 1492.04 596.325 1501.9 602.526 1511.75 608.728 1519.54 617.046 1525.25 627.48 1528.4 633.387 1530.52 639.982 1531.61 647.267 1532.69 654.551 1533.23 662.328 1533.23 670.596L1533.23 763.031 1495.1 763.031 1495.1 670.596C1495.1 665.281 1494.7 660.31 1493.91 655.683 1493.13 651.057 1492.14 647.267 1490.96 644.314 1488.79 638.604 1485.44 634.076 1480.91 630.729 1476.37 627.382 1470.95 625.709 1464.65 625.709 1459.72 625.709 1454.99 626.693 1450.46 628.662 1445.92 630.63 1441.79 633.239 1438.04 636.488 1434.3 639.736 1431.14 643.575 1428.58 648.005 1426.02 652.435 1424.15 657.111 1422.96 662.033 1422.17 665.182 1421.53 669.416 1421.04 674.731 1420.55 680.047 1420.3 686.741 1420.3 694.813L1420.3 763.031 1382.46 763.031 1382.46 597.654 1420.3 597.654 1420.3 611.533C1426.02 606.021 1432.97 601.591 1441.14 598.244 1449.32 594.897 1457.16 593.224 1464.65 593.224ZM1193.61 593.224C1202.47 593.224 1211.15 594.799 1219.62 597.949 1228.1 601.099 1235.29 605.529 1241.2 611.238L1241.2 597.654 1279.04 597.654 1279.04 749.151C1279.04 761.751 1277.07 772.973 1273.13 782.816 1269.19 792.66 1263.57 800.929 1256.28 807.623 1248.99 814.317 1240.17 819.387 1229.82 822.832 1219.47 826.277 1207.89 828 1195.08 828 1180.7 828 1167 824.506 1153.99 817.516 1140.98 810.527 1130.34 801.028 1122.06 789.019L1152.22 769.232C1157.34 777.501 1163.89 783.949 1171.88 788.576 1179.86 793.202 1187.59 795.515 1195.08 795.515 1208.49 795.515 1219.52 791.873 1228.19 784.589 1236.87 777.304 1241.2 766.181 1241.2 751.218L1241.2 741.472C1235.88 747.773 1228.83 752.694 1220.06 756.238 1211.29 759.782 1202.47 761.554 1193.61 761.554 1181.39 761.554 1170.1 759.585 1159.76 755.648 1149.41 751.71 1140.44 746.05 1132.85 738.667 1125.27 731.284 1119.3 722.425 1114.97 712.089 1110.63 701.752 1108.46 690.186 1108.46 677.389 1108.46 664.592 1110.63 653.025 1114.97 642.689 1119.3 632.353 1125.27 623.494 1132.85 616.111 1140.44 608.728 1149.41 603.068 1159.76 599.13 1170.1 595.193 1181.39 593.224 1193.61 593.224ZM1015.05 593.224C1030.02 593.224 1042.44 596.325 1052.29 602.526 1062.15 608.728 1069.93 617.046 1075.65 627.48 1078.8 633.387 1080.92 639.982 1082.01 647.267 1083.09 654.551 1083.63 662.328 1083.63 670.596L1083.63 763.031 1045.5 763.031 1045.5 670.596C1045.5 665.281 1045.1 660.31 1044.31 655.683 1043.52 651.057 1042.54 647.267 1041.36 644.314 1039.19 638.604 1035.84 634.076 1031.31 630.729 1026.77 627.382 1021.35 625.709 1015.05 625.709 1010.12 625.709 1005.39 626.693 1000.86 628.662 996.323 630.63 992.184 633.239 988.439 636.488 984.694 639.736 981.541 643.575 978.979 648.005 976.417 652.435 974.544 657.111 973.362 662.033 972.573 665.182 971.933 669.416 971.441 674.731 970.948 680.047 970.702 686.741 970.702 694.813L970.702 763.031 932.861 763.031 932.861 597.654 970.702 597.654 970.702 611.533C976.417 606.021 983.364 601.591 991.543 598.244 999.723 594.897 1007.56 593.224 1015.05 593.224ZM626.984 593.224C635.854 593.224 644.525 594.799 653 597.949 661.474 601.099 668.668 605.529 674.581 611.238L674.581 597.654 712.421 597.654 712.421 763.031 674.581 763.031 674.581 747.379C669.259 753.679 662.214 758.601 653.443 762.144 644.673 765.688 635.854 767.46 626.984 767.46 614.568 767.46 603.186 765.344 592.839 761.111 582.492 756.878 573.525 750.972 565.937 743.392 558.349 735.812 552.437 726.657 548.2 715.928 543.962 705.198 541.844 693.336 541.844 680.342 541.844 667.348 543.962 655.486 548.2 644.756 552.437 634.027 558.349 624.872 565.937 617.292 573.525 609.712 582.492 603.806 592.839 599.573 603.186 595.34 614.568 593.224 626.984 593.224ZM752.528 538.59 905.959 538.59 905.959 571.665 791.551 571.665 791.551 631.615 885.856 631.615 885.856 664.395 791.551 664.395 791.551 729.955 910.689 729.955 910.689 763.031 752.528 763.031ZM112 538.59 151.023 538.59 151.023 729.955 267.205 729.955 267.205 763.031 112 763.031ZM1307.91 538 1349.3 538 1349.3 579.344 1307.91 579.344Z" fill-rule="evenodd"/></g></svg>