<svg width="3032" height="1299" xmlns="http://www.w3.org/2000/svg" xmlns:xlink="http://www.w3.org/1999/xlink" xml:space="preserve" overflow="hidden"><defs><clipPath id="clip0"><rect x="-866" y="0" width="3032" height="1299"/></clipPath></defs><g clip-path="url(#clip0)" transform="translate(866 0)"><rect x="-866" y="0" width="3032" height="1299" fill="#FFFFFF"/><path d="M-419 438-419 438-418.999 438-408.09 438.276C-296.076 443.954-207 536.574-207 650-207 763.426-296.076 856.046-408.09 861.724L-418.999 862-419 862-419 862C-419 748.575-329.924 655.954-217.91 650.276L-207 650-217.91 649.724C-329.924 644.046-419 551.425-419 438ZM4.99963 438 4.99991 438 5.00015 438C5.00015 551.425-84.0759 644.046-196.09 649.724L-206.999 650-196.09 650.276C-84.0759 655.954 5.00015 748.575 5.00015 862L4.99991 862 4.99963 862-5.90961 861.724C-117.924 856.046-207 763.426-207 650-207 536.574-117.924 443.954-5.90961 438.276Z" fill="#8516C4" fill-rule="evenodd"/><path d="M1638.18 542.419C1628.13 542.419 1619.46 545.826 1612.17 552.642 1604.87 559.458 1600.04 568.792 1597.68 580.645L1678.98 580.645C1676.81 569.583 1672.18 560.446 1665.08 553.234 1657.99 546.024 1649.02 542.419 1638.18 542.419ZM1193.61 542.419C1187.1 542.419 1180.99 543.653 1175.28 546.123 1169.56 548.592 1164.53 552.099 1160.2 556.642 1155.86 561.187 1152.46 566.718 1150 573.237 1147.54 579.757 1146.3 586.967 1146.3 594.87 1146.3 602.969 1147.54 610.229 1150 616.65 1152.46 623.071 1155.86 628.553 1160.2 633.097 1164.53 637.64 1169.56 641.147 1175.28 643.616 1180.99 646.086 1187.1 647.32 1193.61 647.32 1200.11 647.32 1206.22 646.185 1211.93 643.913 1217.65 641.641 1222.67 638.283 1227.01 633.838 1231.35 629.393 1234.75 623.911 1237.21 617.391 1239.67 610.872 1240.91 603.364 1240.91 594.87 1240.91 586.375 1239.67 578.867 1237.21 572.348 1234.75 565.829 1231.35 560.346 1227.01 555.901 1222.67 551.456 1217.65 548.098 1211.93 545.826 1206.22 543.554 1200.11 542.419 1193.61 542.419ZM626.984 542.419C620.283 542.419 614.026 543.752 608.212 546.419 602.398 549.086 597.372 552.889 593.135 557.828 588.898 562.767 585.596 568.595 583.232 575.312 580.866 582.028 579.684 589.535 579.684 597.833 579.684 606.13 580.866 613.637 583.232 620.354 585.596 627.071 588.898 632.899 593.135 637.838 597.372 642.777 602.398 646.58 608.212 649.247 614.026 651.914 620.283 653.247 626.984 653.247 633.685 653.247 639.943 652.012 645.757 649.543 651.571 647.073 656.597 643.469 660.834 638.727 665.071 633.985 668.373 628.158 670.737 621.243 673.103 614.329 674.285 606.525 674.285 597.833 674.285 589.141 673.103 581.337 670.737 574.422 668.373 567.508 665.071 561.68 660.834 556.939 656.597 552.197 651.571 548.592 645.757 546.123 639.943 543.653 633.685 542.419 626.984 542.419ZM1309.69 514.859 1347.53 514.859 1347.53 680.806 1309.69 680.806ZM262.82 514.859 303.025 514.859 343.822 612.946 349.439 629.244 355.056 613.242 397.035 514.859 437.24 514.859 339.092 743.037 298.887 743.037 329.928 671.027ZM542.632 510.711 542.632 544.197C530.216 543.604 519.474 546.617 510.408 553.234 501.343 559.853 495.528 568.595 492.967 579.46 492.178 582.621 491.538 586.869 491.045 592.202 490.552 597.537 490.306 604.253 490.306 612.353L490.306 680.806 452.465 680.806 452.465 514.859 490.306 514.859 490.306 528.787C497.204 522.268 505.235 517.625 514.399 514.859 523.564 512.094 532.975 510.711 542.632 510.711ZM1638.18 510.414C1649.81 510.414 1660.5 512.488 1670.26 516.637 1680.01 520.786 1688.44 526.564 1695.53 533.973 1702.63 541.381 1708.15 550.172 1712.09 560.346 1716.03 570.521 1718 581.732 1718 593.98L1718 612.057 1597.98 612.057C1598.76 617.786 1600.39 623.12 1602.85 628.059 1605.32 632.998 1608.37 637.344 1612.02 641.098 1615.66 644.851 1619.95 647.814 1624.88 649.988 1629.8 652.161 1635.13 653.247 1640.84 653.247 1650.89 653.247 1660.11 650.383 1668.48 644.654 1676.86 638.924 1683.41 631.615 1688.14 622.725L1715.64 643.765C1707.36 656.408 1696.67 666.484 1683.56 673.99 1670.45 681.498 1656.21 685.251 1640.84 685.251 1628.62 685.251 1617.44 683.127 1607.29 678.88 1597.14 674.633 1588.42 668.706 1581.12 661.1 1573.83 653.494 1568.22 644.308 1564.27 633.541 1560.33 622.774 1558.36 610.872 1558.36 597.833 1558.36 584.794 1560.43 572.891 1564.57 562.124 1568.71 551.358 1574.37 542.172 1581.57 534.566 1588.76 526.96 1597.24 521.033 1606.99 516.786 1616.75 512.538 1627.14 510.414 1638.18 510.414ZM1464.65 510.414C1479.63 510.414 1492.04 513.526 1501.9 519.749 1511.75 525.972 1519.54 534.319 1525.25 544.789 1528.4 550.716 1530.52 557.334 1531.61 564.644 1532.69 571.953 1533.23 579.757 1533.23 588.054L1533.23 680.806 1495.1 680.806 1495.1 588.054C1495.1 582.72 1494.7 577.732 1493.91 573.089 1493.13 568.446 1492.14 564.644 1490.96 561.68 1488.79 555.951 1485.44 551.407 1480.91 548.049 1476.37 544.69 1470.95 543.011 1464.65 543.011 1459.72 543.011 1454.99 543.999 1450.46 545.974 1445.92 547.95 1441.79 550.568 1438.04 553.827 1434.3 557.087 1431.14 560.94 1428.58 565.385 1426.02 569.83 1424.15 574.522 1422.96 579.46 1422.17 582.621 1421.53 586.869 1421.04 592.202 1420.55 597.537 1420.3 604.253 1420.3 612.353L1420.3 680.806 1382.46 680.806 1382.46 514.859 1420.3 514.859 1420.3 528.787C1426.02 523.255 1432.97 518.81 1441.14 515.452 1449.32 512.094 1457.16 510.414 1464.65 510.414ZM1193.61 510.414C1202.47 510.414 1211.15 511.995 1219.62 515.156 1228.1 518.317 1235.29 522.762 1241.2 528.491L1241.2 514.859 1279.04 514.859 1279.04 666.879C1279.04 679.522 1277.07 690.783 1273.13 700.661 1269.19 710.538 1263.57 718.836 1256.28 725.553 1248.99 732.27 1240.17 737.357 1229.82 740.814 1219.47 744.271 1207.89 746 1195.08 746 1180.7 746 1167 742.493 1153.99 735.48 1140.98 728.467 1130.34 718.934 1122.06 706.884L1152.22 687.029C1157.34 695.327 1163.89 701.797 1171.88 706.439 1179.86 711.082 1187.59 713.403 1195.08 713.403 1208.49 713.403 1219.52 709.748 1228.19 702.439 1236.87 695.129 1241.2 683.967 1241.2 668.953L1241.2 659.174C1235.88 665.496 1228.83 670.435 1220.06 673.99 1211.29 677.547 1202.47 679.325 1193.61 679.325 1181.39 679.325 1170.1 677.349 1159.76 673.398 1149.41 669.447 1140.44 663.767 1132.85 656.359 1125.27 648.951 1119.3 640.06 1114.97 629.689 1110.63 619.317 1108.46 607.711 1108.46 594.87 1108.46 582.028 1110.63 570.422 1114.97 560.05 1119.3 549.679 1125.27 540.789 1132.85 533.38 1140.44 525.972 1149.41 520.292 1159.76 516.341 1170.1 512.39 1181.39 510.414 1193.61 510.414ZM1015.05 510.414C1030.02 510.414 1042.44 513.526 1052.29 519.749 1062.15 525.972 1069.93 534.319 1075.65 544.789 1078.8 550.716 1080.92 557.334 1082.01 564.644 1083.09 571.953 1083.63 579.757 1083.63 588.054L1083.63 680.806 1045.5 680.806 1045.5 588.054C1045.5 582.72 1045.1 577.732 1044.31 573.089 1043.52 568.446 1042.54 564.644 1041.36 561.68 1039.19 555.951 1035.84 551.407 1031.31 548.049 1026.77 544.69 1021.35 543.011 1015.05 543.011 1010.12 543.011 1005.39 543.999 1000.86 545.974 996.323 547.95 992.184 550.568 988.439 553.827 984.694 557.087 981.541 560.94 978.979 565.385 976.417 569.83 974.544 574.522 973.362 579.46 972.573 582.621 971.933 586.869 971.441 592.202 970.948 597.537 970.702 604.253 970.702 612.353L970.702 680.806 932.861 680.806 932.861 514.859 970.702 514.859 970.702 528.787C976.417 523.255 983.364 518.81 991.543 515.452 999.723 512.094 1007.56 510.414 1015.05 510.414ZM626.984 510.414C635.854 510.414 644.525 511.995 653 515.156 661.474 518.317 668.668 522.762 674.581 528.491L674.581 514.859 712.421 514.859 712.421 680.806 674.581 680.806 674.581 665.1C669.259 671.422 662.214 676.361 653.443 679.917 644.673 683.474 635.854 685.251 626.984 685.251 614.568 685.251 603.186 683.127 592.839 678.88 582.492 674.633 573.525 668.706 565.937 661.1 558.349 653.494 552.437 644.308 548.2 633.541 543.962 622.774 541.844 610.872 541.844 597.833 541.844 584.794 543.962 572.891 548.2 562.124 552.437 551.358 558.349 542.172 565.937 534.566 573.525 526.96 582.492 521.033 592.839 516.786 603.186 512.538 614.568 510.414 626.984 510.414ZM752.528 455.593 905.959 455.593 905.959 488.782 791.551 488.782 791.551 548.938 885.856 548.938 885.856 581.831 791.551 581.831 791.551 647.617 910.689 647.617 910.689 680.806 752.528 680.806ZM112 455.593 151.023 455.593 151.023 647.617 267.205 647.617 267.205 680.806 112 680.806ZM1307.91 455 1349.3 455 1349.3 496.487 1307.91 496.487Z" fill-rule="evenodd"/><path d="M1176.76 788.881C1172.07 788.881 1168.03 790.456 1164.63 793.607 1161.23 796.759 1158.97 801.074 1157.87 806.554L1195.79 806.554C1194.78 801.439 1192.62 797.215 1189.31 793.881 1186 790.548 1181.82 788.881 1176.76 788.881ZM1087.18 788.881C1084.14 788.881 1081.3 789.452 1078.63 790.594 1075.96 791.735 1073.62 793.356 1071.6 795.457 1069.57 797.558 1067.99 800.115 1066.84 803.129 1065.69 806.143 1065.12 809.477 1065.12 813.13 1065.12 816.875 1065.69 820.231 1066.84 823.199 1067.99 826.168 1069.57 828.702 1071.6 830.803 1073.62 832.904 1075.96 834.525 1078.63 835.666 1081.3 836.808 1084.14 837.379 1087.18 837.379 1090.21 837.379 1093.06 836.854 1095.73 835.804 1098.39 834.753 1100.74 833.201 1102.76 831.146 1104.78 829.091 1106.37 826.556 1107.52 823.542 1108.67 820.528 1109.24 817.057 1109.24 813.13 1109.24 809.203 1108.67 805.732 1107.52 802.718 1106.37 799.704 1104.78 797.169 1102.76 795.114 1100.74 793.059 1098.39 791.507 1095.73 790.456 1093.06 789.406 1090.21 788.881 1087.18 788.881ZM995.25 788.881C992.124 788.881 989.205 789.497 986.493 790.731 983.782 791.964 981.437 793.722 979.461 796.005 977.484 798.288 975.945 800.983 974.841 804.088 973.738 807.193 973.187 810.664 973.187 814.5 973.187 818.336 973.738 821.807 974.841 824.912 975.945 828.017 977.484 830.712 979.461 832.995 981.437 835.278 983.782 837.036 986.493 838.269 989.205 839.503 992.124 840.119 995.25 840.119 998.375 840.119 1001.29 839.548 1004.01 838.406 1006.72 837.265 1009.06 835.598 1011.04 833.406 1013.01 831.214 1014.55 828.52 1015.66 825.323 1016.76 822.126 1017.31 818.519 1017.31 814.5 1017.31 810.481 1016.76 806.874 1015.66 803.677 1014.55 800.48 1013.01 797.786 1011.04 795.594 1009.06 793.402 1006.72 791.735 1004.01 790.594 1001.29 789.452 998.375 788.881 995.25 788.881ZM775.586 788.881C772.461 788.881 769.542 789.452 766.83 790.594 764.118 791.735 761.774 793.402 759.798 795.594 757.821 797.786 756.281 800.48 755.178 803.677 754.075 806.874 753.524 810.481 753.524 814.5 753.524 818.519 754.075 822.126 755.178 825.323 756.281 828.52 757.821 831.214 759.798 833.406 761.774 835.598 764.118 837.265 766.83 838.406 769.542 839.548 772.461 840.119 775.586 840.119 778.712 840.119 781.631 839.503 784.343 838.269 787.055 837.036 789.399 835.278 791.375 832.995 793.352 830.712 794.891 828.017 795.995 824.912 797.098 821.807 797.649 818.336 797.649 814.5 797.649 810.664 797.098 807.193 795.995 804.088 794.891 800.983 793.352 798.288 791.375 796.005 789.399 793.722 787.055 791.964 784.343 790.731 781.631 789.497 778.712 788.881 775.586 788.881ZM207.146 788.881C204.205 788.881 201.47 789.497 198.942 790.731 196.414 791.964 194.207 793.722 192.323 796.005 190.438 798.288 188.944 800.983 187.841 804.088 186.738 807.193 186.187 810.664 186.187 814.5 186.187 818.336 186.738 821.807 187.841 824.912 188.944 828.017 190.438 830.712 192.323 832.995 194.207 835.278 196.414 837.036 198.942 838.269 201.47 839.503 204.205 840.119 207.146 840.119 210.088 840.119 212.823 839.503 215.351 838.269 217.879 837.036 220.085 835.278 221.97 832.995 223.854 830.712 225.348 828.017 226.451 824.912 227.554 821.807 228.106 818.336 228.106 814.5 228.106 810.664 227.554 807.193 226.451 804.088 225.348 800.983 223.854 798.288 221.97 796.005 220.085 793.722 217.879 791.964 215.351 790.731 212.823 789.497 210.088 788.881 207.146 788.881ZM649.552 776.14 667.341 776.14 667.341 819.021C667.341 821.487 667.525 823.793 667.892 825.939 668.26 828.086 668.719 829.844 669.271 831.214 670.282 833.863 671.845 835.963 673.959 837.516 676.074 839.069 678.602 839.845 681.544 839.845 683.842 839.845 686.048 839.388 688.162 838.475 690.277 837.562 692.207 836.351 693.954 834.844 695.701 833.338 697.171 831.556 698.366 829.501 699.561 827.446 700.435 825.277 700.986 822.994 701.354 821.533 701.653 819.569 701.883 817.103 702.113 814.637 702.228 811.532 702.228 807.787L702.228 776.14 719.878 776.14 719.878 852.86 702.228 852.86 702.228 846.421C699.561 848.978 696.321 851.033 692.506 852.586 688.691 854.139 685.037 854.915 681.544 854.915 674.557 854.915 668.765 853.476 664.169 850.599 659.573 847.723 655.941 843.864 653.276 839.023 651.805 836.283 650.816 833.223 650.311 829.844 649.805 826.465 649.552 822.857 649.552 819.021ZM460.478 776.14 478.128 776.14 478.128 852.86 460.478 852.86ZM300.913 774.222 300.913 789.703C295.122 789.429 290.112 790.822 285.883 793.881 281.654 796.941 278.942 800.983 277.747 806.006 277.379 807.467 277.081 809.431 276.851 811.897 276.621 814.363 276.506 817.468 276.506 821.213L276.506 852.86 258.856 852.86 258.856 776.14 276.506 776.14 276.506 782.579C279.724 779.565 283.47 777.419 287.745 776.14 292.019 774.861 296.409 774.222 300.913 774.222ZM1246.56 774.085C1249.13 774.085 1251.68 774.405 1254.21 775.044 1256.74 775.683 1259.08 776.574 1261.24 777.716 1263.41 778.857 1265.34 780.204 1267.04 781.757 1268.74 783.31 1270.09 784.999 1271.1 786.826L1260.76 795.868C1259.2 793.311 1257.13 791.507 1254.56 790.456 1251.98 789.406 1249.32 788.881 1246.56 788.881 1244.26 788.881 1242.47 789.612 1241.18 791.073 1239.89 792.534 1239.25 794.178 1239.25 796.005 1239.25 799.384 1242.01 802.398 1247.52 805.047L1257.73 809.979C1260.03 811.075 1262.16 812.285 1264.14 813.609 1266.12 814.934 1267.84 816.464 1269.31 818.199 1270.78 819.934 1271.93 821.921 1272.76 824.159 1273.59 826.396 1274 828.931 1274 831.762 1274 835.141 1273.31 838.247 1271.93 841.078 1270.55 843.91 1268.67 846.353 1266.28 848.408 1263.89 850.463 1260.99 852.061 1257.59 853.203 1254.19 854.344 1250.51 854.915 1246.56 854.915 1243.16 854.915 1239.87 854.367 1236.7 853.271 1233.53 852.175 1230.59 850.76 1227.88 849.024 1225.16 847.289 1222.82 845.371 1220.84 843.27 1218.87 841.169 1217.33 839.069 1216.22 836.968L1227.67 827.241C1229.69 831.26 1232.49 834.411 1236.08 836.694 1239.66 838.977 1243.16 840.119 1246.56 840.119 1249.87 840.119 1252.33 839.343 1253.94 837.79 1255.55 836.237 1256.35 834.228 1256.35 831.762 1256.35 829.661 1255.55 827.812 1253.94 826.214 1252.33 824.615 1249.64 822.903 1245.87 821.076L1236.91 816.829C1231.85 814.454 1228.04 811.372 1225.46 807.581 1222.89 803.791 1221.6 799.978 1221.6 796.142 1221.6 793.128 1222.2 790.297 1223.39 787.648 1224.59 784.999 1226.27 782.67 1228.43 780.661 1230.59 778.652 1233.21 777.053 1236.29 775.866 1239.37 774.679 1242.79 774.085 1246.56 774.085ZM1176.76 774.085C1182.19 774.085 1187.17 775.044 1191.72 776.962 1196.27 778.88 1200.2 781.551 1203.51 784.976 1206.82 788.401 1209.4 792.466 1211.24 797.169 1213.07 801.873 1213.99 807.056 1213.99 812.719L1213.99 821.076 1158.01 821.076C1158.38 823.725 1159.14 826.191 1160.28 828.474 1161.43 830.757 1162.86 832.767 1164.56 834.502 1166.26 836.237 1168.26 837.607 1170.56 838.612 1172.86 839.617 1175.34 840.119 1178 840.119 1182.69 840.119 1186.99 838.795 1190.9 836.146 1194.8 833.497 1197.86 830.118 1200.07 826.008L1212.89 835.735C1209.03 841.58 1204.04 846.238 1197.93 849.709 1191.82 853.18 1185.17 854.915 1178 854.915 1172.3 854.915 1167.09 853.933 1162.35 851.969 1157.62 850.006 1153.55 847.266 1150.15 843.75 1146.75 840.233 1144.13 835.986 1142.29 831.009 1140.45 826.031 1139.53 820.528 1139.53 814.5 1139.53 808.472 1140.5 802.969 1142.43 797.991 1144.36 793.014 1147 788.767 1150.36 785.251 1153.71 781.734 1157.66 778.994 1162.21 777.031 1166.77 775.067 1171.61 774.085 1176.76 774.085ZM1087.18 774.085C1091.32 774.085 1095.36 774.816 1099.31 776.277 1103.27 777.738 1106.62 779.793 1109.38 782.442L1109.38 776.14 1127.03 776.14 1127.03 846.421C1127.03 852.266 1126.11 857.472 1124.27 862.039 1122.43 866.606 1119.81 870.442 1116.41 873.547 1113.01 876.653 1108.9 879.004 1104.07 880.603 1099.24 882.201 1093.84 883 1087.87 883 1081.16 883 1074.77 881.379 1068.7 878.136 1062.63 874.894 1057.67 870.488 1053.81 864.916L1067.87 855.737C1070.26 859.573 1073.32 862.564 1077.04 864.711 1080.77 866.857 1084.37 867.93 1087.87 867.93 1094.12 867.93 1099.27 866.24 1103.31 862.861 1107.36 859.482 1109.38 854.321 1109.38 847.38L1109.38 842.859C1106.9 845.782 1103.61 848.065 1099.52 849.709 1095.43 851.353 1091.32 852.175 1087.18 852.175 1081.48 852.175 1076.22 851.262 1071.39 849.435 1066.56 847.608 1062.38 844.983 1058.84 841.558 1055.3 838.133 1052.52 834.023 1050.5 829.228 1048.48 824.433 1047.47 819.067 1047.47 813.13 1047.47 807.193 1048.48 801.828 1050.5 797.032 1052.52 792.237 1055.3 788.128 1058.84 784.703 1062.38 781.277 1066.56 778.652 1071.39 776.825 1076.22 774.998 1081.48 774.085 1087.18 774.085ZM995.25 774.085C999.387 774.085 1003.43 774.816 1007.38 776.277 1011.34 777.738 1014.69 779.793 1017.45 782.442L1017.45 776.14 1035.1 776.14 1035.1 852.86 1017.45 852.86 1017.45 845.599C1014.97 848.522 1011.68 850.805 1007.59 852.449 1003.5 854.093 999.387 854.915 995.25 854.915 989.458 854.915 984.149 853.933 979.323 851.969 974.497 850.006 970.314 847.266 966.775 843.75 963.236 840.233 960.478 835.986 958.501 831.009 956.525 826.031 955.537 820.528 955.537 814.5 955.537 808.472 956.525 802.969 958.501 797.991 960.478 793.014 963.236 788.767 966.775 785.251 970.314 781.734 974.497 778.994 979.323 777.031 984.149 775.067 989.458 774.085 995.25 774.085ZM207.146 774.085C212.662 774.085 217.764 775.067 222.452 777.031 227.141 778.994 231.209 781.734 234.656 785.251 238.103 788.767 240.815 793.014 242.791 797.991 244.768 802.969 245.756 808.472 245.756 814.5 245.756 820.528 244.768 826.031 242.791 831.009 240.815 835.986 238.103 840.233 234.656 843.75 231.209 847.266 227.141 850.006 222.452 851.969 217.764 853.933 212.662 854.915 207.146 854.915 201.63 854.915 196.506 853.933 191.771 851.969 187.037 850.006 182.946 847.266 179.499 843.75 176.051 840.233 173.362 835.986 171.432 831.009 169.502 826.031 168.536 820.528 168.536 814.5 168.536 808.472 169.502 802.969 171.432 797.991 173.362 793.014 176.051 788.767 179.499 785.251 182.946 781.734 187.037 778.994 191.771 777.031 196.506 775.067 201.63 774.085 207.146 774.085ZM893.899 764.084 893.899 803.951 914.169 803.951C917.294 803.951 920.167 803.426 922.787 802.376 925.407 801.325 927.659 799.887 929.544 798.06 931.428 796.233 932.876 794.11 933.887 791.689 934.898 789.269 935.404 786.689 935.404 783.949 935.404 781.209 934.898 778.652 933.887 776.277 932.876 773.902 931.428 771.802 929.544 769.975 927.659 768.148 925.407 766.71 922.787 765.659 920.167 764.609 917.294 764.084 914.169 764.084ZM498.836 755.727 516.486 755.727 516.486 776.14 536.342 776.14 536.342 790.936 516.486 790.936 516.486 827.515C516.486 831.442 517.29 834.525 518.899 836.763 520.508 839 523.059 840.119 526.552 840.119 527.747 840.119 529.264 840.073 531.102 839.982 532.941 839.891 534.688 839.662 536.342 839.297L536.342 854.093C534.136 854.55 532.137 854.801 530.344 854.846 528.551 854.892 527.012 854.915 525.725 854.915 520.852 854.915 516.716 854.299 513.314 853.066 509.913 851.833 507.132 850.029 504.972 847.654 502.811 845.279 501.249 842.402 500.283 839.023 499.318 835.644 498.836 831.808 498.836 827.515L498.836 790.936 485.46 790.936 485.46 776.14 498.836 776.14ZM875.697 748.74 914.169 748.74C920.052 748.74 925.43 749.676 930.302 751.549 935.174 753.421 939.334 755.955 942.781 759.152 946.229 762.349 948.895 766.07 950.779 770.317 952.664 774.564 953.606 779.108 953.606 783.949 953.606 788.79 952.664 793.334 950.779 797.581 948.895 801.828 946.229 805.572 942.781 808.814 939.334 812.057 935.174 814.614 930.302 816.486 925.43 818.359 920.052 819.295 914.169 819.295L893.899 819.295 893.899 852.86 875.697 852.86ZM548.201 748.74 566.403 748.74 566.403 790.525 612.735 790.525 612.735 748.74 630.937 748.74 630.937 852.86 612.735 852.86 612.735 805.869 566.403 805.869 566.403 852.86 548.201 852.86ZM459.651 748.466 478.956 748.466 478.956 767.646 459.651 767.646ZM401.23 746.137C411.526 746.137 420.535 748.512 428.257 753.261 435.979 758.01 442.047 764.541 446.459 772.852L432.394 781.757C429.452 775.638 425.247 770.729 419.777 767.029 414.307 763.331 408.125 761.481 401.23 761.481 396.542 761.481 392.175 762.417 388.13 764.289 384.086 766.162 380.546 768.811 377.513 772.236 374.479 775.661 372.089 779.793 370.342 784.634 368.596 789.475 367.723 794.863 367.723 800.8 367.723 806.737 368.596 812.125 370.342 816.966 372.089 821.807 374.479 825.939 377.513 829.365 380.546 832.789 384.086 835.438 388.13 837.311 392.175 839.183 396.542 840.119 401.23 840.119 406.011 840.119 410.308 839.366 414.123 837.859 417.938 836.351 421.225 834.342 423.983 831.831 426.74 829.319 428.924 826.373 430.533 822.994 432.141 819.615 433.175 816.007 433.635 812.171L403.575 812.171 403.575 796.827 451.699 796.827C451.791 797.466 451.837 798.106 451.837 798.745L451.837 800.526C451.837 808.472 450.734 815.801 448.528 822.514 446.321 829.228 443.058 835.027 438.737 839.914 434.417 844.8 429.108 848.613 422.811 851.353 416.513 854.093 409.32 855.463 401.23 855.463 393.876 855.463 387.05 854.139 380.753 851.49 374.456 848.841 369.009 845.12 364.413 840.324 359.817 835.529 356.185 829.776 353.519 823.062 350.854 816.349 349.52 808.929 349.52 800.8 349.52 792.671 350.854 785.251 353.519 778.537 356.185 771.824 359.817 766.07 364.413 761.276 369.009 756.481 374.456 752.759 380.753 750.11 387.05 747.461 393.876 746.137 401.23 746.137ZM152.403 746.137C155.988 746.137 159.527 746.502 163.02 747.233L163.02 761.755C162.009 761.481 160.699 761.253 159.091 761.07 157.482 760.887 155.528 760.796 153.23 760.796 150.932 760.796 149.116 761.07 147.783 761.618 146.45 762.166 145.439 762.988 144.75 764.084 144.06 765.18 143.623 766.527 143.44 768.126 143.256 769.724 143.164 771.528 143.164 773.537L143.164 776.14 163.02 776.14 163.02 790.936 143.164 790.936 143.164 852.86 125.514 852.86 125.514 790.936 112 790.936 112 776.14 125.514 776.14 125.514 773.537C125.514 769.427 125.95 765.705 126.824 762.371 127.697 759.038 129.168 756.161 131.236 753.74 133.305 751.32 136.063 749.448 139.51 748.124 142.957 746.799 147.255 746.137 152.403 746.137ZM735.735 746 753.386 746 753.386 782.442C756.144 779.793 759.499 777.738 763.452 776.277 767.405 774.816 771.45 774.085 775.586 774.085 781.378 774.085 786.687 775.067 791.513 777.031 796.339 778.994 800.522 781.734 804.061 785.251 807.601 788.767 810.359 793.014 812.335 797.991 814.311 802.969 815.3 808.472 815.3 814.5 815.3 820.528 814.311 826.031 812.335 831.009 810.359 835.986 807.601 840.233 804.061 843.75 800.522 847.266 796.339 850.006 791.513 851.969 786.687 853.933 781.378 854.915 775.586 854.915 771.45 854.915 767.336 854.093 763.245 852.449 759.154 850.805 755.868 848.522 753.386 845.599L753.386 852.86 735.735 852.86Z" fill-rule="evenodd"/></g></svg>