<svg width="1452" height="1529" xmlns="http://www.w3.org/2000/svg" xmlns:xlink="http://www.w3.org/1999/xlink" xml:space="preserve" overflow="hidden"><defs><clipPath id="clip0"><rect x="1474" y="473" width="1452" height="1529"/></clipPath><linearGradient x1="2200" y1="1004.5" x2="1474" y2="1004.5" gradientUnits="userSpaceOnUse" spreadMethod="reflect" id="fill1"><stop offset="0" stop-color="#3E9FF0"/><stop offset="0.01" stop-color="#3E9FF0"/><stop offset="0.99" stop-color="#4472C4"/><stop offset="1" stop-color="#4472C4"/></linearGradient><linearGradient x1="2200" y1="1004.5" x2="2926" y2="1004.5" gradientUnits="userSpaceOnUse" spreadMethod="reflect" id="fill2"><stop offset="0" stop-color="#3E9FF0"/><stop offset="0.01" stop-color="#3E9FF0"/><stop offset="0.99" stop-color="#4472C4"/><stop offset="1" stop-color="#4472C4"/></linearGradient><linearGradient x1="2200" y1="473" x2="2200" y2="1363" gradientUnits="userSpaceOnUse" spreadMethod="reflect" id="fill3"><stop offset="0" stop-color="#78BCF5"/><stop offset="0.01" stop-color="#78BCF5"/><stop offset="0.99" stop-color="#3E9FF0"/><stop offset="1" stop-color="#3E9FF0"/></linearGradient><linearGradient x1="1474" y1="1575.5" x2="2926" y2="1575.5" gradientUnits="userSpaceOnUse" spreadMethod="reflect" id="fill4"><stop offset="0" stop-color="#3E9FF0"/><stop offset="0.01" stop-color="#3E9FF0"/><stop offset="0.99" stop-color="#4472C4"/><stop offset="1" stop-color="#4472C4"/></linearGradient><linearGradient x1="2926" y1="1735" x2="1474" y2="1735" gradientUnits="userSpaceOnUse" spreadMethod="reflect" id="fill5"><stop offset="0" stop-color="#3E9FF0"/><stop offset="0.01" stop-color="#3E9FF0"/><stop offset="0.99" stop-color="#4472C4"/><stop offset="1" stop-color="#4472C4"/></linearGradient><linearGradient x1="1474" y1="1895.5" x2="2926" y2="1895.5" gradientUnits="userSpaceOnUse" spreadMethod="reflect" id="fill6"><stop offset="0" stop-color="#3E9FF0"/><stop offset="0.01" stop-color="#3E9FF0"/><stop offset="0.99" stop-color="#4472C4"/><stop offset="1" stop-color="#4472C4"/></linearGradient></defs><g clip-path="url(#clip0)" transform="translate(-1474 -473)"><path d="M1837 646C1855.99 646 1874.98 661.635 1889.47 692.903L2200 1363 1474 1363 1784.53 692.903C1799.02 661.635 1818.01 646 1837 646Z" fill="url(#fill1)" fill-rule="evenodd"/><path d="M2563 646C2581.99 646 2600.98 661.635 2615.47 692.903L2926 1363 2200 1363 2510.53 692.903C2525.02 661.635 2544.01 646 2563 646Z" fill="url(#fill2)" fill-rule="evenodd"/><path d="M2200 473C2223.6 473 2247.19 492.407 2265.19 531.221L2651 1363 1749 1363 2134.81 531.221C2152.81 492.407 2176.4 473 2200 473Z" fill="url(#fill3)" fill-rule="evenodd"/><path d="M1474 1469 2760.85 1469C2852.06 1469 2926 1540.52 2926 1628.75 2926 1639.78 2924.84 1650.55 2922.64 1660.95L2915.89 1682 2913.02 1673.07C2887.95 1615.73 2829.25 1575.5 2760.85 1575.5L1474 1575.5 1474 1469Z" fill="url(#fill4)" fill-rule="evenodd"/><path d="M2915.96 1575 2922.66 1595.95C2924.85 1606.35 2926 1617.11 2926 1628.14 2926 1716.34 2852.33 1787.84 2761.45 1787.84L1638.55 1788.43C1570.39 1788.43 1511.91 1828.65 1486.93 1885.97L1484.04 1895 1477.34 1874.05C1475.15 1863.65 1474 1852.89 1474 1841.86 1474 1753.66 1547.67 1682.16 1638.55 1682.16L2761.45 1681.57C2829.61 1681.57 2888.09 1641.35 2913.07 1584.03L2915.96 1575Z" fill="url(#fill5)" fill-rule="evenodd"/><path d="M2926 2002 1639.15 2002C1547.94 2002 1474 1930.48 1474 1842.25 1474 1831.22 1475.16 1820.45 1477.36 1810.05L1484.11 1789 1486.98 1797.93C1512.05 1855.27 1570.75 1895.5 1639.15 1895.5L2926 1895.5 2926 2002Z" fill="url(#fill6)" fill-rule="evenodd"/></g></svg>