<svg width="1590" height="1667" xmlns="http://www.w3.org/2000/svg" xmlns:xlink="http://www.w3.org/1999/xlink" xml:space="preserve" overflow="hidden"><defs><filter id="fx0" x="-10%" y="-10%" width="120%" height="120%" filterUnits="userSpaceOnUse" primitiveUnits="userSpaceOnUse"><feComponentTransfer color-interpolation-filters="sRGB"><feFuncR type="discrete" tableValues="0.266667 0.266667"/><feFuncG type="discrete" tableValues="0.447059 0.447059"/><feFuncB type="discrete" tableValues="0.768627 0.768627"/><feFuncA type="linear" slope="0.2" intercept="0"/></feComponentTransfer><feGaussianBlur stdDeviation="7.64771 7.6478"/></filter><filter id="fx1" x="-10%" y="-10%" width="120%" height="120%" filterUnits="userSpaceOnUse" primitiveUnits="userSpaceOnUse"><feComponentTransfer color-interpolation-filters="sRGB"><feFuncR type="discrete" tableValues="0.266667 0.266667"/><feFuncG type="discrete" tableValues="0.447059 0.447059"/><feFuncB type="discrete" tableValues="0.768627 0.768627"/><feFuncA type="linear" slope="0.2" intercept="0"/></feComponentTransfer><feGaussianBlur stdDeviation="7.64771 7.6478"/></filter><filter id="fx2" x="-10%" y="-10%" width="120%" height="120%" filterUnits="userSpaceOnUse" primitiveUnits="userSpaceOnUse"><feComponentTransfer color-interpolation-filters="sRGB"><feFuncR type="discrete" tableValues="0.266667 0.266667"/><feFuncG type="discrete" tableValues="0.447059 0.447059"/><feFuncB type="discrete" tableValues="0.768627 0.768627"/><feFuncA type="linear" slope="0.2" intercept="0"/></feComponentTransfer><feGaussianBlur stdDeviation="7.63156 7.63147"/></filter><filter id="fx3" x="-10%" y="-10%" width="120%" height="120%" filterUnits="userSpaceOnUse" primitiveUnits="userSpaceOnUse"><feComponentTransfer color-interpolation-filters="sRGB"><feFuncR type="discrete" tableValues="0.266667 0.266667"/><feFuncG type="discrete" tableValues="0.447059 0.447059"/><feFuncB type="discrete" tableValues="0.768627 0.768627"/><feFuncA type="linear" slope="0.2" intercept="0"/></feComponentTransfer><feGaussianBlur stdDeviation="7.64369 7.66053"/></filter><filter id="fx4" x="-10%" y="-10%" width="120%" height="120%" filterUnits="userSpaceOnUse" primitiveUnits="userSpaceOnUse"><feComponentTransfer color-interpolation-filters="sRGB"><feFuncR type="discrete" tableValues="0.266667 0.266667"/><feFuncG type="discrete" tableValues="0.447059 0.447059"/><feFuncB type="discrete" tableValues="0.768627 0.768627"/><feFuncA type="linear" slope="0.2" intercept="0"/></feComponentTransfer><feGaussianBlur stdDeviation="7.64369 7.62228"/></filter><filter id="fx5" x="-10%" y="-10%" width="120%" height="120%" filterUnits="userSpaceOnUse" primitiveUnits="userSpaceOnUse"><feComponentTransfer color-interpolation-filters="sRGB"><feFuncR type="discrete" tableValues="0.266667 0.266667"/><feFuncG type="discrete" tableValues="0.447059 0.447059"/><feFuncB type="discrete" tableValues="0.768627 0.768627"/><feFuncA type="linear" slope="0.2" intercept="0"/></feComponentTransfer><feGaussianBlur stdDeviation="7.64369 7.66053"/></filter><clipPath id="clip6"><rect x="1405" y="418" width="1590" height="1667"/></clipPath><linearGradient x1="2200" y1="1004.5" x2="1474" y2="1004.5" gradientUnits="userSpaceOnUse" spreadMethod="reflect" id="fill7"><stop offset="0" stop-color="#3E9FF0"/><stop offset="0.01" stop-color="#3E9FF0"/><stop offset="0.99" stop-color="#4472C4"/><stop offset="1" stop-color="#4472C4"/></linearGradient><clipPath id="clip8"><rect x="0" y="0" width="289" height="286"/></clipPath><linearGradient x1="2200" y1="1004.5" x2="2926" y2="1004.5" gradientUnits="userSpaceOnUse" spreadMethod="reflect" id="fill9"><stop offset="0" stop-color="#3E9FF0"/><stop offset="0.01" stop-color="#3E9FF0"/><stop offset="0.99" stop-color="#4472C4"/><stop offset="1" stop-color="#4472C4"/></linearGradient><clipPath id="clip10"><rect x="0" y="0" width="347" height="343"/></clipPath><linearGradient x1="2200" y1="473" x2="2200" y2="1363" gradientUnits="userSpaceOnUse" spreadMethod="reflect" id="fill11"><stop offset="0" stop-color="#78BCF5"/><stop offset="0.01" stop-color="#78BCF5"/><stop offset="0.99" stop-color="#3E9FF0"/><stop offset="1" stop-color="#3E9FF0"/></linearGradient><clipPath id="clip12"><rect x="0" y="0" width="531" height="118"/></clipPath><linearGradient x1="1474" y1="1575.5" x2="2926" y2="1575.5" gradientUnits="userSpaceOnUse" spreadMethod="reflect" id="fill13"><stop offset="0" stop-color="#3E9FF0"/><stop offset="0.01" stop-color="#3E9FF0"/><stop offset="0.99" stop-color="#4472C4"/><stop offset="1" stop-color="#4472C4"/></linearGradient><clipPath id="clip14"><rect x="0" y="0" width="531" height="153"/></clipPath><linearGradient x1="2926" y1="1735" x2="1474" y2="1735" gradientUnits="userSpaceOnUse" spreadMethod="reflect" id="fill15"><stop offset="0" stop-color="#3E9FF0"/><stop offset="0.01" stop-color="#3E9FF0"/><stop offset="0.99" stop-color="#4472C4"/><stop offset="1" stop-color="#4472C4"/></linearGradient><clipPath id="clip16"><rect x="0" y="0" width="531" height="118"/></clipPath><linearGradient x1="1474" y1="1895.5" x2="2926" y2="1895.5" gradientUnits="userSpaceOnUse" spreadMethod="reflect" id="fill17"><stop offset="0" stop-color="#3E9FF0"/><stop offset="0.01" stop-color="#3E9FF0"/><stop offset="0.99" stop-color="#4472C4"/><stop offset="1" stop-color="#4472C4"/></linearGradient></defs><g clip-path="url(#clip6)" transform="translate(-1405 -418)"><g filter="url(#fx0)" transform="matrix(2.99654 0 0 2.9965 1404 590)"><g><path d="M144.5 23.2771C150.838 23.2771 157.176 28.4947 162.011 38.9298L265.64 262.556 23.3603 262.556 126.989 38.9298C131.824 28.4947 138.162 23.2771 144.5 23.2771Z" fill="#FF0000" fill-rule="evenodd"/></g></g><path d="M1837 646C1855.99 646 1874.98 661.635 1889.47 692.903L2200 1363 1474 1363 1784.53 692.903C1799.02 661.635 1818.01 646 1837 646Z" fill="url(#fill7)" fill-rule="evenodd"/><g filter="url(#fx1)" transform="matrix(2.99654 0 0 2.9965 2130 590)"><g clip-path="url(#clip8)"><path d="M144.5 23.2771C150.838 23.2771 157.176 28.4947 162.011 38.9298L265.64 262.556 23.3602 262.556 126.989 38.9298C131.824 28.4947 138.162 23.2771 144.5 23.2771Z" fill="#FF0000" fill-rule="evenodd"/></g></g><path d="M2563 646C2581.99 646 2600.98 661.635 2615.47 692.903L2926 1363 2200 1363 2510.53 692.903C2525.02 661.635 2544.01 646 2563 646Z" fill="url(#fill9)" fill-rule="evenodd"/><g filter="url(#fx2)" transform="matrix(3.00288 0 0 3.00292 1679 417)"><g clip-path="url(#clip10)" transform="matrix(1 0 0 1 0 2.84217e-14)"><path d="M173.5 23.2274C181.358 23.2274 189.215 29.6902 195.211 42.6154L323.689 319.606 23.3109 319.606 151.789 42.6154C157.785 29.6902 165.642 23.2274 173.5 23.2274Z" fill="#FF0000" fill-rule="evenodd"/></g></g><path d="M2200 473C2223.6 473 2247.19 492.407 2265.19 531.221L2651 1363 1749 1363 2134.81 531.221C2152.81 492.407 2176.4 473 2200 473Z" fill="url(#fill11)" fill-rule="evenodd"/><g filter="url(#fx3)" transform="matrix(2.99812 0 0 2.99153 1404 1413)"><g clip-path="url(#clip12)"><path d="M23.348 23.3158 452.566 23.3158C482.989 23.3158 507.652 47.2244 507.652 76.7171 507.652 80.4037 507.267 84.003 506.533 87.4793L504.279 94.517 503.323 91.5308C494.96 72.3643 475.383 58.9157 452.566 58.9157L23.348 58.9157 23.348 23.3158Z" fill="#FF0000" fill-rule="evenodd"/></g></g><path d="M1474 1469 2760.85 1469C2852.06 1469 2926 1540.52 2926 1628.75 2926 1639.78 2924.84 1650.55 2922.64 1660.95L2915.89 1682 2913.02 1673.07C2887.95 1615.73 2829.25 1575.5 2760.85 1575.5L1474 1575.5 1474 1469Z" fill="url(#fill13)" fill-rule="evenodd"/><g filter="url(#fx4)" transform="matrix(2.99812 0 0 3.00654 1404 1519)"><g clip-path="url(#clip14)" transform="matrix(1 0 0 1 0 -5.68434e-14)"><path d="M504.302 23.1995 506.537 30.1684C507.268 33.6264 507.652 37.2067 507.652 40.8739 507.652 70.211 483.079 93.9935 452.767 93.9935L78.2329 94.189C55.4988 94.189 35.993 107.567 27.661 126.632L26.6981 129.634 24.463 122.665C23.7318 119.208 23.3479 115.627 23.3479 111.96 23.3479 82.6229 47.9208 58.8404 78.2329 58.8404L452.767 58.6449C475.501 58.6449 495.007 45.2672 503.339 26.2018L504.302 23.1995Z" fill="#FF0000" fill-rule="evenodd"/></g></g><path d="M2915.96 1575 2922.66 1595.95C2924.85 1606.35 2926 1617.11 2926 1628.14 2926 1716.34 2852.33 1787.84 2761.45 1787.84L1638.55 1788.43C1570.39 1788.43 1511.91 1828.65 1486.93 1885.97L1484.04 1895 1477.34 1874.05C1475.15 1863.65 1474 1852.89 1474 1841.86 1474 1753.66 1547.67 1682.16 1638.55 1682.16L2761.45 1681.57C2829.61 1681.57 2888.09 1641.35 2913.07 1584.03L2915.96 1575Z" fill="url(#fill15)" fill-rule="evenodd"/><g filter="url(#fx5)" transform="matrix(2.99812 0 0 2.99153 1404 1733)"><g clip-path="url(#clip16)" transform="matrix(1 0 0 1 0 -1.13687e-13)"><path d="M507.652 94.517 78.434 94.517C48.011 94.517 23.348 70.6084 23.348 41.1157 23.348 37.4291 23.7335 33.8298 24.4673 30.3535L26.7208 23.3158 27.677 26.3019C36.0396 45.4685 55.6168 58.917 78.434 58.917L507.652 58.9171 507.652 94.517Z" fill="#FF0000" fill-rule="evenodd"/></g></g><path d="M2926 2002 1639.15 2002C1547.94 2002 1474 1930.48 1474 1842.25 1474 1831.22 1475.16 1820.45 1477.36 1810.05L1484.11 1789 1486.98 1797.93C1512.05 1855.27 1570.75 1895.5 1639.15 1895.5L2926 1895.5 2926 2002Z" fill="url(#fill17)" fill-rule="evenodd"/></g></svg>