<svg width="890" height="890" xmlns="http://www.w3.org/2000/svg" xmlns:xlink="http://www.w3.org/1999/xlink" xml:space="preserve" overflow="hidden"><g><rect x="0" y="0" width="890" height="890" fill="#000000" fill-opacity="0"/><path d="M58.0001 223C58.0001 131.873 131.873 58.0001 223 58.0001 314.127 58.0001 388 131.873 388 223 388 314.127 314.127 388 223 388 131.873 388 58.0001 314.127 58.0001 223ZM100.999 223C100.999 290.379 155.621 345.001 223 345.001 290.379 345.001 345.001 290.379 345.001 223 345.001 155.621 290.379 100.999 223 100.999 155.621 100.999 100.999 155.621 100.999 223Z" fill-rule="evenodd"/><path d="M503 668C503 576.873 576.873 503 668 503 759.127 503 833 576.873 833 668 833 759.127 759.127 833 668 833 576.873 833 503 759.127 503 668ZM545.999 668C545.999 735.379 600.621 790.001 668 790.001 735.379 790.001 790.001 735.379 790.001 668 790.001 600.621 735.379 545.999 668 545.999 600.621 545.999 545.999 600.621 545.999 668Z" fill-rule="evenodd"/><path d="M514 103.097 548.097 69.0001 667.5 188.403 786.902 69.0001 821 103.097 701.597 222.5 821 341.903 786.902 376 667.5 256.597 548.097 376 514 341.903 633.403 222.5 514 103.097Z" fill-rule="evenodd"/><path d="M69.0001 548.097 103.097 514 222.5 633.403 341.903 514 376 548.097 256.597 667.5 376 786.902 341.903 821 222.5 701.597 103.097 821 69.0001 786.902 188.403 667.5 69.0001 548.097Z" fill-rule="evenodd"/></g></svg>