<?xml version="1.0" encoding="UTF-8" standalone="no"?>
<svg
   width="89"
   height="90"
   xml:space="preserve"
   overflow="hidden"
   version="1.1"
   id="svg11"
   sodipodi:docname="icon-pictor.svg"
   inkscape:version="1.3.2 (091e20e, 2023-11-25, custom)"
   xmlns:inkscape="http://www.inkscape.org/namespaces/inkscape"
   xmlns:sodipodi="http://sodipodi.sourceforge.net/DTD/sodipodi-0.dtd"
   xmlns="http://www.w3.org/2000/svg"
   xmlns:svg="http://www.w3.org/2000/svg"><sodipodi:namedview
     id="namedview11"
     pagecolor="#ffffff"
     bordercolor="#999999"
     borderopacity="1"
     inkscape:showpageshadow="2"
     inkscape:pageopacity="0"
     inkscape:pagecheckerboard="true"
     inkscape:deskcolor="#d1d1d1"
     inkscape:zoom="9.0333333"
     inkscape:cx="35.756458"
     inkscape:cy="52.416974"
     inkscape:window-width="1920"
     inkscape:window-height="1009"
     inkscape:window-x="-8"
     inkscape:window-y="-8"
     inkscape:window-maximized="1"
     inkscape:current-layer="svg11" /><defs
     id="defs1"><clipPath
       clipPathUnits="userSpaceOnUse"
       id="clipPath12"><g
         id="g13"><rect
           x="0"
           y="0"
           width="89"
           height="90"
           id="rect12" /></g></clipPath><clipPath
       clipPathUnits="userSpaceOnUse"
       id="clipPath13"><g
         id="g14"><rect
           x="0"
           y="0"
           width="89"
           height="90"
           id="rect13" /></g></clipPath><clipPath
       clipPathUnits="userSpaceOnUse"
       id="clipPath14"><g
         id="g15"><rect
           x="0"
           y="0"
           width="89"
           height="90"
           id="rect14" /></g></clipPath><clipPath
       clipPathUnits="userSpaceOnUse"
       id="clipPath15"><g
         id="g16"><rect
           x="0"
           y="0"
           width="89"
           height="90"
           id="rect15" /></g></clipPath><clipPath
       clipPathUnits="userSpaceOnUse"
       id="clipPath16"><g
         id="g17"><rect
           x="0"
           y="0"
           width="89"
           height="90"
           id="rect16" /></g></clipPath><clipPath
       clipPathUnits="userSpaceOnUse"
       id="clipPath17"><g
         id="g18"><rect
           x="0"
           y="0"
           width="89"
           height="90"
           id="rect17" /></g></clipPath><clipPath
       clipPathUnits="userSpaceOnUse"
       id="clipPath18"><g
         id="g19"><rect
           x="0"
           y="0"
           width="89"
           height="90"
           id="rect18" /></g></clipPath><clipPath
       clipPathUnits="userSpaceOnUse"
       id="clipPath19"><g
         id="g20"><rect
           x="0"
           y="0"
           width="89"
           height="90"
           id="rect19" /></g></clipPath><clipPath
       clipPathUnits="userSpaceOnUse"
       id="clipPath20"><g
         id="g21"><rect
           x="0"
           y="0"
           width="89"
           height="90"
           id="rect20" /></g></clipPath><clipPath
       clipPathUnits="userSpaceOnUse"
       id="clipPath21"><g
         id="g22"><rect
           x="0"
           y="0"
           width="89"
           height="90"
           id="rect21" /></g></clipPath><clipPath
       clipPathUnits="userSpaceOnUse"
       id="clipPath22"><g
         id="g23"><rect
           x="0"
           y="0"
           width="89"
           height="90"
           id="rect22" /></g></clipPath><clipPath
       clipPathUnits="userSpaceOnUse"
       id="clipPath23"><g
         id="g24"><rect
           x="0"
           y="0"
           width="89"
           height="90"
           id="rect23" /></g></clipPath></defs><path
     id="path1"
     style="color:#000000;fill:#000000;fill-rule:evenodd;stroke-linecap:round;stroke-linejoin:round;stroke-miterlimit:10;-inkscape-stroke:none"
     d="M 42.535156 8.0273438 C 42.105078 8.0243821 41.675754 8.0629214 41.253906 8.140625 C 39.566514 8.4514396 37.995073 9.3981339 36.953125 10.908203 A 2.2918942 2.2918942 0 0 0 36.951172 10.912109 L 33.431641 16.03125 A 2.2918942 2.2918942 0 0 0 33.669922 18.919922 L 34.171875 19.441406 C 34.248565 19.591782 34.28008 19.766927 34.169922 19.951172 C 34.03875 20.12762 33.866527 20.158456 33.675781 20.138672 L 33.029297 19.863281 A 2.2918942 2.2918942 0 0 0 30.242188 20.669922 L 29.802734 21.308594 L 11.453125 17.261719 A 2.2918942 2.2918942 0 0 0 9.0625 18.257812 A 2.2918942 2.2918942 0 0 0 6.9199219 20.269531 L 2.2207031 66.75 A 2.2918942 2.2918942 0 0 0 3.9433594 69.203125 L 37.544922 77.630859 C 39.102749 80.120519 41.867252 81.791016 45 81.791016 C 48.232588 81.791016 51.072436 80.012696 52.599609 77.390625 L 86.044922 69.203125 A 2.2918942 2.2918942 0 0 0 87.779297 66.740234 L 82.964844 20.263672 A 2.2918942 2.2918942 0 0 0 80.818359 18.257812 A 2.2918942 2.2918942 0 0 0 78.4375 17.259766 L 65.330078 20.078125 C 65.284285 20.072748 65.23925 20.063039 65.193359 20.058594 C 63.790442 19.922696 62.34787 20.229201 61.09375 20.988281 L 60.304688 21.158203 C 59.970525 19.513773 59.032626 17.990903 57.554688 16.978516 L 46.259766 9.1933594 A 2.2918942 2.2918942 0 0 0 46.255859 9.1894531 C 45.123526 8.4138107 43.825391 8.0362287 42.535156 8.0273438 z M 42.482422 12.587891 C 42.886666 12.59392 43.296395 12.718854 43.664062 12.970703 L 54.958984 20.755859 A 2.2918942 2.2918942 0 0 0 54.964844 20.759766 C 55.939394 21.427332 56.17836 22.700266 55.503906 23.677734 A 2.2918942 2.2918942 0 0 0 55.501953 23.681641 L 52.931641 27.421875 C 52.237113 27.335075 51.554106 27.396206 50.884766 27.585938 C 50.610815 26.818566 50.173146 26.105092 49.460938 25.615234 C 48.660605 25.060768 47.718216 24.896834 46.804688 24.984375 C 46.560667 24.102814 46.070455 23.284399 45.269531 22.734375 C 44.471656 22.18217 43.531179 22.017092 42.619141 22.103516 C 42.376142 21.222228 41.888831 20.403696 41.091797 19.855469 C 40.366672 19.353105 39.525067 19.197212 38.693359 19.224609 C 38.632429 18.546842 38.46023 17.889337 38.134766 17.28125 L 40.726562 13.511719 C 41.064612 13.021792 41.554428 12.717778 42.082031 12.621094 C 42.213932 12.596924 42.347674 12.585881 42.482422 12.587891 z M 77.041016 23.623047 L 77.917969 32.126953 L 71.748047 24.755859 L 77.041016 23.623047 z M 12.845703 23.646484 L 26.177734 26.574219 L 15.640625 41.890625 A 2.2918942 2.2918942 0 0 0 15.611328 41.921875 L 14.3125 43.810547 A 2.2918942 2.2918942 0 0 0 14.308594 43.814453 C 12.570726 46.351487 12.843208 49.716612 14.763672 51.964844 C 14.852856 52.091794 14.944371 52.216777 15.042969 52.337891 C 15.152438 52.472358 15.263824 52.605909 15.384766 52.732422 C 15.712069 53.088194 16.078446 53.415033 16.492188 53.699219 L 27.599609 61.380859 L 27.646484 61.414062 A 2.2918942 2.2918942 0 0 0 27.652344 61.419922 C 29.146768 62.446395 30.951726 62.794583 32.632812 62.470703 A 2.2918942 2.2918942 0 0 0 33.324219 62.193359 L 33.232422 62.253906 L 37.443359 67.417969 A 2.2918942 2.2918942 0 0 0 37.447266 67.421875 C 38.603007 68.832781 40.24721 69.662959 41.933594 69.830078 A 2.2918942 2.2918942 0 0 0 42.208984 69.802734 L 42.208984 70.068359 L 39.056641 69.277344 A 2.2918942 2.2918942 0 0 0 37.628906 69.402344 L 8.9785156 62.171875 L 12.845703 23.646484 z M 35.101562 24.441406 C 35.37219 25.223036 35.813449 25.951436 36.53125 26.451172 A 2.2918942 2.2918942 0 0 0 36.546875 26.462891 C 37.345574 27.008836 38.284397 27.167577 39.193359 27.080078 C 39.338807 27.606824 39.572484 28.110474 39.904297 28.548828 L 39.925781 28.667969 A 2.2918942 2.2918942 0 0 0 42.609375 30.501953 L 43.501953 30.332031 C 43.645455 30.722814 43.832211 31.097627 44.087891 31.431641 L 44.105469 31.527344 A 2.2918942 2.2918942 0 0 0 46.763672 33.357422 L 47.316406 33.257812 C 47.406701 33.800648 47.575741 34.323523 47.839844 34.816406 L 35.912109 52.140625 A 2.2918942 2.2918942 0 0 0 35.910156 52.142578 L 35.458984 52.800781 L 21.302734 43.054688 L 32.640625 26.525391 A 2.2918942 2.2918942 0 0 0 33.011719 25.576172 L 33.212891 25.28125 A 2.2918942 2.2918942 0 0 0 33.482422 24.712891 C 34.027932 24.701754 34.571442 24.590989 35.101562 24.441406 z M 64.578125 25.142578 A 2.2918942 2.2918942 0 0 0 65.132812 25.634766 L 66.898438 26.554688 L 75.1875 36.414062 C 75.58878 37.263416 75.383011 38.280946 74.609375 38.923828 L 74.607422 38.925781 L 71.111328 41.804688 C 70.519717 41.550608 69.900234 41.425751 69.263672 41.404297 L 69.275391 41.287109 A 2.2918942 2.2918942 0 0 0 68.347656 39.222656 C 68.321176 39.187666 68.297717 39.151461 68.269531 39.117188 C 67.667044 38.380342 66.830553 37.966289 65.949219 37.792969 L 65.992188 37.363281 A 2.2918942 2.2918942 0 0 0 65.199219 35.398438 C 65.147773 35.325304 65.096998 35.251923 65.039062 35.181641 C 64.422784 34.434024 63.563773 34.022865 62.666016 33.857422 L 62.707031 33.441406 A 2.2918942 2.2918942 0 0 0 62.070312 31.630859 C 61.990805 31.50455 61.906273 31.380215 61.808594 31.261719 C 61.292489 30.635625 60.598282 30.267153 59.859375 30.054688 L 59.962891 29.720703 A 2.2918942 2.2918942 0 0 0 60.048828 29.318359 A 2.2918942 2.2918942 0 0 0 60.113281 28.541016 L 60.166016 28.638672 L 62.958984 26.386719 A 2.2918942 2.2918942 0 0 0 63.533203 25.650391 L 63.615234 25.583984 A 2.2918942 2.2918942 0 0 0 63.615234 25.582031 C 63.90669 25.345993 64.236539 25.208874 64.578125 25.142578 z M 52.953125 34.435547 A 2.2918942 2.2918942 0 0 0 53.957031 34.582031 L 54.845703 34.492188 C 54.929875 35.076434 55.113735 35.64385 55.462891 36.144531 A 2.2918942 2.2918942 0 0 0 57.455078 37.917969 L 58 37.970703 C 58.037738 38.737797 58.263876 39.495115 58.742188 40.140625 A 2.2918942 2.2918942 0 0 0 60.724609 41.806641 L 61.230469 41.855469 C 61.265789 42.692534 61.517626 43.522343 62.082031 44.207031 C 62.084711 44.210282 62.087154 44.21356 62.089844 44.216797 A 2.2918942 2.2918942 0 0 0 63.994141 45.695312 L 64.125 45.707031 C 64.037661 46.307144 64.045903 46.908787 64.175781 47.509766 L 47.318359 61.388672 L 40.669922 53.320312 L 52.568359 36.029297 A 2.2918942 2.2918942 0 0 0 52.734375 35.746094 A 2.2918942 2.2918942 0 0 0 52.738281 35.736328 A 2.2918942 2.2918942 0 0 0 52.845703 35.476562 A 2.2918942 2.2918942 0 0 0 52.869141 35.408203 A 2.2918942 2.2918942 0 0 0 52.970703 34.798828 A 2.2918942 2.2918942 0 0 0 52.970703 34.796875 A 2.2918942 2.2918942 0 0 0 52.957031 34.470703 A 2.2918942 2.2918942 0 0 0 52.957031 34.46875 A 2.2918942 2.2918942 0 0 0 52.953125 34.435547 z M 78.958984 42.201172 L 81.015625 62.160156 L 52.048828 69.285156 A 2.2918942 2.2918942 0 0 0 50.943359 69.277344 L 46.791016 70.318359 L 46.791016 68.539062 L 46.791016 68.365234 A 2.2918942 2.2918942 0 0 0 46.816406 68.351562 L 47.009766 68.197266 L 46.986328 68.173828 L 46.994141 68.166016 L 46.791016 67.962891 L 46.791016 67.759766 L 47.292969 67.349609 A 2.2918942 2.2918942 0 0 0 48.613281 66.898438 L 58.521484 58.873047 L 68.767578 50.613281 A 2.2918942 2.2918942 0 0 0 68.863281 50.5 L 68.871094 50.492188 A 2.2918942 2.2918942 0 0 0 69.708984 48.9375 L 69.859375 47.408203 L 71.511719 47.566406 A 2.2918942 2.2918942 0 0 0 73.166016 47.068359 L 78.021484 43.154297 C 78.377978 42.866923 78.686644 42.545272 78.958984 42.201172 z M 18.703125 46.837891 L 32.707031 56.470703 L 32.236328 56.775391 A 2.2918942 2.2918942 0 0 0 31.585938 57.453125 C 31.042713 57.57375 30.453159 57.471481 29.939453 57.121094 L 29.935547 57.119141 L 18.630859 49.34375 L 18.628906 49.341797 C 18.560009 49.294126 18.49698 49.242812 18.435547 49.189453 C 18.08089 48.535907 18.096829 47.724355 18.5625 47.042969 L 18.703125 46.837891 z M 37.966797 57.248047 L 43.771484 64.304688 C 42.844132 65.052153 41.570318 64.930785 40.822266 64.017578 A 2.2918942 2.2918942 0 0 0 40.820312 64.013672 L 36.732422 59.044922 L 37.9375 57.289062 L 37.939453 57.287109 L 37.966797 57.248047 z M 48.470703 74.882812 L 48.439453 75.037109 A 2.2918942 2.2918942 0 0 0 48.455078 75.378906 C 47.70645 76.485493 46.4539 77.208984 45 77.208984 C 43.4144 77.208984 42.067531 76.349895 41.353516 75.070312 L 43.939453 75.722656 A 2.2918942 2.2918942 0 0 0 44.003906 75.732422 A 2.2918942 2.2918942 0 0 0 44.044922 75.738281 A 2.2918942 2.2918942 0 0 0 45.003906 75.724609 A 2.2918942 2.2918942 0 0 0 45.046875 75.724609 L 48.470703 74.882812 z " /></svg>
