<svg width="940" height="939" xmlns="http://www.w3.org/2000/svg" xmlns:xlink="http://www.w3.org/1999/xlink" xml:space="preserve" overflow="hidden"><defs><clipPath id="clip0"><rect x="1730" y="768" width="940" height="939"/></clipPath></defs><g clip-path="url(#clip0)" transform="translate(-1730 -768)"><rect x="1730" y="768" width="940" height="939" fill="#000000" fill-opacity="0"/><path d="M1792 830 1792 830 1792 830 1813 830.53C2028.57 841.445 2200 1019.48 2200 1237.5 2200 1455.52 2028.57 1633.56 1813 1644.47L1792 1645 1792 1645 1792 1645C1792 1426.98 1963.43 1248.94 2179 1238.03L2200 1237.5 2179 1236.97C1963.43 1226.06 1792 1048.02 1792 830ZM2608 830 2608 830 2608 830C2608 1048.02 2436.57 1226.06 2221 1236.97L2200 1237.5 2221 1238.03C2436.57 1248.94 2608 1426.98 2608 1645L2608 1645 2608 1645 2587 1644.47C2371.43 1633.56 2200 1455.52 2200 1237.5 2200 1019.48 2371.43 841.445 2587 830.53Z" fill-rule="evenodd"/></g></svg>