<svg width="940" height="939" xmlns="http://www.w3.org/2000/svg" xmlns:xlink="http://www.w3.org/1999/xlink" xml:space="preserve" overflow="hidden"><defs><clipPath id="clip0"><rect x="1730" y="768" width="940" height="939"/></clipPath></defs><g clip-path="url(#clip0)" transform="translate(-1730 -768)"><rect x="1730" y="768" width="940" height="939" fill="#000000" fill-opacity="0"/><path d="M1782.89 1534.75 1784.56 1539.96C1799.17 1573.41 1833.37 1596.87 1873.23 1596.87L2623 1596.87 2623 1659 1873.23 1659C1820.08 1659 1777 1617.28 1777 1565.81 1777 1559.38 1777.67 1553.09 1778.96 1547.03ZM2617.14 1410.33 2621.05 1422.51C2622.33 1428.55 2623 1434.81 2623 1441.22 2623 1492.5 2580.07 1534.07 2527.12 1534.07L1872.87 1534.41C1857.98 1534.41 1843.88 1537.7 1831.31 1543.57L1826.98 1545.98 1817.64 1537.38C1811.35 1530.7 1806.06 1523.2 1801.96 1515.11L1798.69 1507.32 1805.08 1499.82C1822.43 1483.02 1846.4 1472.62 1872.87 1472.62L2527.12 1472.28C2566.83 1472.28 2600.91 1448.9 2615.46 1415.57ZM1777 1348.37 2526.77 1348.37C2553.34 1348.37 2577.4 1358.8 2594.81 1375.66L2603.09 1385.38 2598.04 1397.39C2593.94 1405.47 2588.65 1412.98 2582.36 1419.66L2577.12 1424.49 2568.49 1419.68C2555.87 1413.79 2541.72 1410.49 2526.77 1410.49L1777 1410.49ZM2411.5 869.098C2422.57 869.098 2433.63 878.204 2442.07 896.416L2623 1286.7 2495.88 1286.7 2347.94 967.576 2380.93 896.416C2389.37 878.204 2400.43 869.098 2411.5 869.098ZM1988.5 869.098C1999.57 869.098 2010.63 878.204 2019.07 896.416L2052.06 967.576 1904.12 1286.7 1777 1286.7 1957.93 896.416C1966.37 878.204 1977.43 869.098 1988.5 869.098ZM2200 768C2213.74 768 2227.49 779.311 2237.98 801.932L2462.7 1286.7 1937.3 1286.7 2162.03 801.932C2172.51 779.311 2186.26 768 2200 768Z" fill-rule="evenodd"/></g></svg>