<svg width="583" height="558" xmlns="http://www.w3.org/2000/svg" xmlns:xlink="http://www.w3.org/1999/xlink" xml:space="preserve" overflow="hidden"><defs><clipPath id="clip0"><rect x="-349" y="371" width="583" height="558"/></clipPath></defs><g clip-path="url(#clip0)" transform="translate(349 -371)"><path d="M-207.75 632.562-207.75 679.068C-175.656 679.068-148.88 701.8-142.687 732.019L-141.338 745.384-94.7641 745.384-97.0597 722.647C-107.595 671.235-153.15 632.562-207.75 632.562ZM-207.75 538.94-207.75 585.391C-130.322 585.391-65.7213 640.234-50.7812 713.14L-47.5259 745.384-1.0065 745.384-2.07391 724.277C-12.6613 620.176-100.705 538.94-207.75 538.94ZM-207.75 445.317-207.75 491.714C-76.2183 491.714 31.9653 591.533 44.9746 719.448L46.2859 745.384 92.7507 745.384 91.1992 714.704C75.8106 563.394-52.1607 445.317-207.75 445.317ZM-274.107 371 159.107 371C200.469 371 234 404.482 234 445.785L234 744.916C234 786.219 200.469 819.701 159.107 819.701L-146.109 819.701-255.566 929-255.566 819.701-274.107 819.701C-315.469 819.701-349 786.219-349 744.916L-349 445.785C-349 404.482-315.469 371-274.107 371Z" fill="#B100FF" fill-rule="evenodd"/></g></svg>