<svg width="1321" height="341" xmlns="http://www.w3.org/2000/svg" xmlns:xlink="http://www.w3.org/1999/xlink" xml:space="preserve" overflow="hidden"><defs><clipPath id="clip0"><rect x="327" y="479" width="1321" height="341"/></clipPath></defs><g clip-path="url(#clip0)" transform="translate(-327 -479)"><path d="M327 740.655 634.483 740.655 634.483 780.142 327 780.142ZM1469.19 700.428 1518.96 700.428 1518.96 705.964C1518.96 714.329 1521.11 722.509 1525.41 730.505 1529.71 738.501 1536.29 745.882 1545.14 752.648 1553.99 759.414 1565.17 765.258 1578.69 770.179 1592.21 775.099 1608.3 778.667 1626.99 780.88L1610.39 818.155C1582.13 814.464 1558.29 807.637 1538.87 797.673 1519.45 787.707 1504.58 775.345 1494.26 760.583 1483.93 775.345 1469.06 787.707 1449.65 797.673 1430.23 807.637 1406.39 814.464 1378.12 818.155L1361.53 780.88C1380.21 778.667 1396.31 775.099 1409.83 770.179 1423.35 765.258 1434.53 759.414 1443.38 752.648 1452.23 745.882 1458.74 738.501 1462.92 730.505 1467.1 722.509 1469.19 714.329 1469.19 705.964ZM1428.26 554.286 1428.26 579.75 1560.62 579.75 1560.62 554.286ZM1015.09 514.429 1174.73 514.429C1174.73 540.017 1172.4 564.496 1167.73 587.869 1163.06 611.242 1155.01 633.262 1143.58 653.929 1132.15 674.595 1116.78 693.848 1097.49 711.685 1078.2 729.522 1053.92 745.821 1024.67 760.583L998.867 722.94C1020.01 712.361 1038.19 701.043 1053.43 688.988 1068.67 676.932 1081.33 663.893 1091.41 649.869 1101.48 635.845 1109.23 620.837 1114.64 604.845 1120.04 588.853 1123.61 571.631 1125.33 553.179L1015.09 553.179ZM682.659 508.155 843.037 508.155 843.037 639.535 732.799 639.535 732.799 700.797C758.607 700.797 782.818 699.937 805.431 698.214 828.043 696.492 851.27 693.662 875.112 689.726L880.273 729.214C866.264 731.674 852.622 733.705 839.35 735.303 826.077 736.903 812.681 738.133 799.162 738.994 785.644 739.856 771.88 740.408 757.87 740.655 743.859 740.9 729.112 741.023 713.628 741.023L683.026 741.023 683.026 601.155 793.264 601.155 793.264 546.905 682.659 546.905ZM363.131 504.095 599.09 504.095 599.09 543.215 412.535 543.215 412.535 579.012 591.347 579.012 591.347 616.655 412.535 616.655 412.535 654.667 601.671 654.667 601.671 693.047 363.131 693.047ZM1379.97 488.965 1428.26 488.965 1428.26 517.75 1560.62 517.75 1560.62 488.965 1608.92 488.965 1608.92 617.762 1518.59 617.762 1518.59 644.703 1648 644.703 1648 683.083 1340.88 683.083 1340.88 644.703 1469.92 644.703 1469.92 617.762 1379.97 617.762ZM1238.14 479.37 1286.81 479.37 1286.81 819.262 1238.14 819.262 1238.14 649.131 1172.52 649.131 1172.52 609.643 1238.14 609.643ZM898.707 479 947.375 479 947.375 820 898.707 820Z" fill-rule="evenodd"/></g></svg>