<?xml version="1.0" encoding="UTF-8" standalone="no"?>
<!-- Created with Inkscape (http://www.inkscape.org/) -->

<svg
   width="20"
   height="20"
   viewBox="0 0 0.2 0.2"
   version="1.1"
   id="svg1"
   inkscape:version="1.3.2 (091e20e, 2023-11-25, custom)"
   sodipodi:docname="1010-slide-duplicate.svg"
   xmlns:inkscape="http://www.inkscape.org/namespaces/inkscape"
   xmlns:sodipodi="http://sodipodi.sourceforge.net/DTD/sodipodi-0.dtd"
   xmlns="http://www.w3.org/2000/svg"
   xmlns:svg="http://www.w3.org/2000/svg">
  <sodipodi:namedview
     id="namedview1"
     pagecolor="#ffffff"
     bordercolor="#999999"
     borderopacity="1"
     inkscape:showpageshadow="2"
     inkscape:pageopacity="0"
     inkscape:pagecheckerboard="true"
     inkscape:deskcolor="#d1d1d1"
     inkscape:document-units="px"
     showgrid="true"
     inkscape:lockguides="false"
     inkscape:zoom="32"
     inkscape:cx="5.875"
     inkscape:cy="10.421875"
     inkscape:window-width="1920"
     inkscape:window-height="1009"
     inkscape:window-x="-8"
     inkscape:window-y="-8"
     inkscape:window-maximized="1"
     inkscape:current-layer="layer1">
    <inkscape:grid
       id="grid1"
       units="px"
       originx="0"
       originy="0"
       spacingx="0.01"
       spacingy="0.01"
       empcolor="#0099e5"
       empopacity="0.30196078"
       color="#0099e5"
       opacity="0.14901961"
       empspacing="5"
       dotted="false"
       gridanglex="30"
       gridanglez="30"
       visible="true" />
  </sodipodi:namedview>
  <defs
     id="defs1" />
  <g
     inkscape:label="Layer 1"
     inkscape:groupmode="layer"
     id="layer1">
    <path
       id="rect7"
       style="fill:#000000;stroke-width:0.0141421"
       d="M 0 0.02 L 0 0.06 L 0 0.14 L 0 0.18 L 0.02 0.18 L 0.11 0.18 L 0.11 0.17 L 0.11 0.15 L 0.11 0.14 L 0.02 0.14 L 0.02 0.06 L 0.18 0.06 L 0.18 0.11 L 0.2 0.11 L 0.2 0.02 L 0 0.02 z M 0.01 0.03 L 0.040019531 0.03 L 0.040019531 0.05 L 0.01 0.05 L 0.01 0.03 z M 0.06 0.03 L 0.090019531 0.03 L 0.090019531 0.05 L 0.06 0.05 L 0.06 0.03 z M 0.11 0.03 L 0.14001953 0.03 L 0.14001953 0.05 L 0.11 0.05 L 0.11 0.03 z M 0.16 0.03 L 0.19001953 0.03 L 0.19001953 0.05 L 0.16 0.05 L 0.16 0.03 z M 0.01 0.15 L 0.040019531 0.15 L 0.040019531 0.17 L 0.01 0.17 L 0.01 0.15 z M 0.06 0.15 L 0.090019531 0.15 L 0.090019531 0.17 L 0.06 0.17 L 0.06 0.15 z " />
    <path
       id="rect61"
       style="fill:#010000;fill-opacity:1;stroke-width:0.0111858"
       d="M 0.2,0.15 H 0.1853516 L 0.1960547,0.14 0.1824024,0.1253906 0.17,0.1369726 V 0.12 H 0.15 V 0.1346484 L 0.14,0.1239453 0.1253906,0.1375976 0.1369726,0.1499999 H 0.12 v 0.02 h 0.0146484 l -0.0107031,0.01 L 0.1375977,0.1946093 0.15,0.1830273 V 0.2 H 0.17 V 0.1853515 L 0.18,0.1960546 0.1946094,0.1824023 0.1830274,0.17 H 0.2 Z" />
  </g>
</svg>
