<?xml version="1.0" encoding="UTF-8" standalone="no"?>
<!-- Created with Inkscape (http://www.inkscape.org/) -->

<svg
   width="20"
   height="20"
   viewBox="0 0 0.2 0.2"
   version="1.1"
   id="svg1"
   inkscape:version="1.3.2 (091e20e, 2023-11-25, custom)"
   sodipodi:docname="1011-slide-size.svg"
   xmlns:inkscape="http://www.inkscape.org/namespaces/inkscape"
   xmlns:sodipodi="http://sodipodi.sourceforge.net/DTD/sodipodi-0.dtd"
   xmlns="http://www.w3.org/2000/svg"
   xmlns:svg="http://www.w3.org/2000/svg">
  <sodipodi:namedview
     id="namedview1"
     pagecolor="#ffffff"
     bordercolor="#999999"
     borderopacity="1"
     inkscape:showpageshadow="2"
     inkscape:pageopacity="0"
     inkscape:pagecheckerboard="true"
     inkscape:deskcolor="#d1d1d1"
     inkscape:document-units="px"
     showgrid="true"
     inkscape:lockguides="false"
     inkscape:zoom="32"
     inkscape:cx="5.890625"
     inkscape:cy="10.390625"
     inkscape:window-width="1920"
     inkscape:window-height="1009"
     inkscape:window-x="-8"
     inkscape:window-y="-8"
     inkscape:window-maximized="1"
     inkscape:current-layer="layer1">
    <inkscape:grid
       id="grid1"
       units="px"
       originx="0"
       originy="0"
       spacingx="0.01"
       spacingy="0.01"
       empcolor="#0099e5"
       empopacity="0.30196078"
       color="#0099e5"
       opacity="0.14901961"
       empspacing="5"
       dotted="false"
       gridanglex="30"
       gridanglez="30"
       visible="true" />
  </sodipodi:namedview>
  <defs
     id="defs1" />
  <g
     inkscape:label="Layer 1"
     inkscape:groupmode="layer"
     id="layer1">
    <path
       id="rect7"
       style="fill:#000000;stroke-width:0.0141421"
       d="M -1.953125e-05 0.02 L -1.953125e-05 0.06 L -1.953125e-05 0.14 L -1.953125e-05 0.18 L 0.019980469 0.18 L 0.099980469 0.18 L 0.099980469 0.14 L 0.0099804688 0.14 L 0.0099804688 0.1 L 0 0.1 L 0 0.02 L -1.953125e-05 0.02 z M 0.1 0.02 L 0.1 0.06 L 0.18998047 0.06 L 0.18998047 0.1 L 0.19998047 0.1 L 0.19998047 0.02 L 0.1 0.02 z M 0.10998047 0.03 L 0.14 0.03 L 0.14 0.05 L 0.10998047 0.05 L 0.10998047 0.03 z M 0.15998047 0.03 L 0.19 0.03 L 0.19 0.05 L 0.15998047 0.05 L 0.15998047 0.03 z M 0.0099804688 0.15 L 0.04 0.15 L 0.04 0.17 L 0.0099804688 0.17 L 0.0099804688 0.15 z M 0.059980469 0.15 L 0.09 0.15 L 0.09 0.17 L 0.059980469 0.17 L 0.059980469 0.15 z " />
    <path
       id="path3"
       style="fill:#000000;stroke-width:0.01"
       d="m 0.11515625,0.10806641 -0.00709,0.00709 L 0.18292969,0.19 H 0.13 V 0.2 H 0.19292969 0.2 V 0.19292969 0.19 0.12 H 0.19 v 0.0629297 z" />
    <path
       id="rect1"
       style="fill:#000000;stroke-width:0.01"
       d="m 0.08484345,0.09193352 0.00709,-0.0070898 -0.07486327,-0.07484373 0.05292969,-10e-9 L 0.0699998,0 0.00707015,0 3.5e-7,1.5e-7 0,0.00707016 l 3e-7,0.00293 v 0.07 h 0.01000004 l 10e-9,-0.0629297 z" />
  </g>
</svg>
