<?xml version="1.0" encoding="UTF-8" standalone="no"?>
<!-- Created with Inkscape (http://www.inkscape.org/) -->

<svg
   width="20"
   height="20"
   viewBox="0 0 0.2 0.2"
   version="1.1"
   id="svg1"
   inkscape:version="1.3.2 (091e20e, 2023-11-25, custom)"
   sodipodi:docname="1011-slide-size.svg"
   xmlns:inkscape="http://www.inkscape.org/namespaces/inkscape"
   xmlns:sodipodi="http://sodipodi.sourceforge.net/DTD/sodipodi-0.dtd"
   xmlns="http://www.w3.org/2000/svg"
   xmlns:svg="http://www.w3.org/2000/svg">
  <sodipodi:namedview
     id="namedview1"
     pagecolor="#ffffff"
     bordercolor="#999999"
     borderopacity="1"
     inkscape:showpageshadow="2"
     inkscape:pageopacity="0"
     inkscape:pagecheckerboard="true"
     inkscape:deskcolor="#d1d1d1"
     inkscape:document-units="px"
     showgrid="true"
     inkscape:lockguides="false"
     inkscape:zoom="32"
     inkscape:cx="5.875"
     inkscape:cy="10.421875"
     inkscape:window-width="1920"
     inkscape:window-height="1009"
     inkscape:window-x="-8"
     inkscape:window-y="-8"
     inkscape:window-maximized="1"
     inkscape:current-layer="layer1">
    <inkscape:grid
       id="grid1"
       units="px"
       originx="0"
       originy="0"
       spacingx="0.01"
       spacingy="0.01"
       empcolor="#0099e5"
       empopacity="0.30196078"
       color="#0099e5"
       opacity="0.14901961"
       empspacing="5"
       dotted="false"
       gridanglex="30"
       gridanglez="30"
       visible="true" />
  </sodipodi:namedview>
  <defs
     id="defs1" />
  <g
     inkscape:label="Layer 1"
     inkscape:groupmode="layer"
     id="layer1">
    <g
       id="g67"
       transform="translate(0.06,0.04)">
      <path
         id="path66"
         style="fill:#010000;fill-opacity:1;stroke-width:0.01"
         d="M 0,0.02 V 0.03414063 0.04 0.08 H 0.02 V 0.05414063 L 0.04949219,0.08363281 0.06363281,0.06949219 0.03414063,0.04 H 0.06 V 0.02 H 0.02 0.01414063 Z" />
      <path
         id="path63"
         style="fill:#010000;fill-opacity:1;stroke-width:0.01"
         d="m 0,0.16 v -0.0141406 -0.005859 -0.04 h 0.02 v 0.025859 L 0.04949219,0.09636719 0.06363281,0.11050781 0.03414063,0.14 H 0.06 V 0.16 H 0.02 0.01414063 Z" />
      <path
         id="path67"
         style="fill:#010000;fill-opacity:1;stroke-width:0.01"
         d="M 0.14,0.02 V 0.03414063 0.04 0.08 H 0.12 V 0.05414063 L 0.09050782,0.08363281 0.07636719,0.06949219 0.10585938,0.04 H 0.08 V 0.02 h 0.04 0.005859 z" />
      <path
         id="path64"
         style="fill:#010000;fill-opacity:1;stroke-width:0.01"
         d="m 0.14,0.16 v -0.0141406 -0.005859 -0.04 H 0.12 v 0.025859 L 0.09050782,0.09636719 0.07636719,0.11050781 0.10585938,0.14 H 0.08 v 0.02 h 0.04 0.005859 z" />
    </g>
    <path
       id="rect7"
       style="fill:#000000;stroke-width:0.0141421"
       d="M -1.953125e-05 0.02 L -1.953125e-05 0.06 L -1.953125e-05 0.14 L -1.953125e-05 0.18 L 0.019980469 0.18 L 0.05 0.18 L 0.05 0.14 L 0.019980469 0.14 L 0.019980469 0.06 L 0.05 0.06 L 0.05 0.04 L 0.059980469 0.04 L 0.059980469 0.03 L 0.09 0.03 L 0.09 0.04 L 0.10998047 0.04 L 0.10998047 0.03 L 0.14 0.03 L 0.14 0.04 L 0.15998047 0.04 L 0.15998047 0.03 L 0.19 0.03 L 0.19 0.04 L 0.19998047 0.04 L 0.19998047 0.02 L -1.953125e-05 0.02 z M 0.0099804688 0.03 L 0.04 0.03 L 0.04 0.05 L 0.0099804688 0.05 L 0.0099804688 0.03 z M 0.0099804688 0.15 L 0.04 0.15 L 0.04 0.17 L 0.0099804688 0.17 L 0.0099804688 0.15 z " />
  </g>
</svg>
