<svg width="1299" height="1299" xmlns="http://www.w3.org/2000/svg" xmlns:xlink="http://www.w3.org/1999/xlink" xml:space="preserve" overflow="hidden"><g><path d="M621.985 986.014 677.015 986.014 677.015 1193.66 877.28 993.395 916.192 1032.31 649.5 1299 610.588 1260.09 382.808 1032.31 421.72 993.395 621.985 1193.66ZM266.693 382.808 305.605 421.721 105.34 621.985 312.986 621.985 312.986 677.016 105.34 677.016 305.605 877.28 266.692 916.193 0 649.5 38.9125 610.588ZM1032.31 382.808 1299 649.5 1260.09 688.412 1260.09 688.412 1032.31 916.192 993.395 877.28 1193.66 677.016 986.015 677.016 986.015 621.985 1193.66 621.985 993.396 421.72ZM649.5 0 688.412 38.9125 688.412 38.9128 916.192 266.693 877.28 305.605 677.015 105.34 677.015 312.987 621.985 312.987 621.985 105.34 421.72 305.605 382.808 266.693Z" fill-rule="evenodd"/><path d="M506.228 384.602 506.228 656.289 651.558 656.289C701.948 655.863 739.421 643.822 763.977 620.166 788.532 596.51 800.761 563.794 800.663 522.018 800.694 494.187 795.284 470.012 784.433 449.495 773.583 428.978 757.105 413.073 735 401.78 712.895 390.487 684.976 384.761 651.244 384.602ZM443 328 653.445 328C699.807 328.299 738.538 336.68 769.637 353.145 800.737 369.609 824.112 392.362 839.762 421.404 855.413 450.447 863.246 483.984 863.262 522.018 863.235 565.497 853.064 602.747 832.749 633.766 812.433 664.786 782.13 687.177 741.839 700.942L890 972 816.706 972 677.038 713.205C669.803 713.572 662.253 713.782 654.389 713.834L506.228 713.834 506.228 972 443 972Z" fill-rule="evenodd"/></g></svg>