<?xml version="1.0" encoding="UTF-8" standalone="no"?>
<!-- Created with Inkscape (http://www.inkscape.org/) -->

<svg
   width="20"
   height="20"
   viewBox="0 0 0.2 0.2"
   version="1.1"
   id="svg1"
   inkscape:version="1.3.2 (091e20e, 2023-11-25, custom)"
   sodipodi:docname="1013-reset-position.svg"
   xmlns:inkscape="http://www.inkscape.org/namespaces/inkscape"
   xmlns:sodipodi="http://sodipodi.sourceforge.net/DTD/sodipodi-0.dtd"
   xmlns="http://www.w3.org/2000/svg"
   xmlns:svg="http://www.w3.org/2000/svg">
  <sodipodi:namedview
     id="namedview1"
     pagecolor="#ffffff"
     bordercolor="#999999"
     borderopacity="1"
     inkscape:showpageshadow="2"
     inkscape:pageopacity="0"
     inkscape:pagecheckerboard="true"
     inkscape:deskcolor="#d1d1d1"
     inkscape:document-units="px"
     showgrid="true"
     inkscape:lockguides="false"
     inkscape:zoom="32"
     inkscape:cx="7.09375"
     inkscape:cy="10.296875"
     inkscape:window-width="1920"
     inkscape:window-height="1009"
     inkscape:window-x="-8"
     inkscape:window-y="-8"
     inkscape:window-maximized="1"
     inkscape:current-layer="layer1">
    <inkscape:grid
       id="grid1"
       units="px"
       originx="0"
       originy="0"
       spacingx="0.01"
       spacingy="0.01"
       empcolor="#0099e5"
       empopacity="0.30196078"
       color="#0099e5"
       opacity="0.14901961"
       empspacing="5"
       dotted="false"
       gridanglex="30"
       gridanglez="30"
       visible="true" />
  </sodipodi:namedview>
  <defs
     id="defs1" />
  <g
     inkscape:label="Layer 1"
     inkscape:groupmode="layer"
     id="layer1">
    <path
       id="path103-0"
       style="fill:#000000;fill-opacity:1;stroke-width:0.01"
       d="M 0.1 0 A 0.1 0.1 0 0 0 0.087539063 0.0008984375 A 0.1 0.1 0 0 0 0.080605469 0.0021289063 A 0.1 0.1 0 0 0 0.075488281 0.0032421875 A 0.1 0.1 0 0 0 0.067617187 0.005625 A 0.1 0.1 0 0 0 0.064023438 0.0069726563 A 0.1 0.1 0 0 0 0.055410156 0.010703125 A 0.1 0.1 0 0 0 0.055371094 0.010722656 A 0.1 0.1 0 0 0 0.010703125 0.055429687 A 0.1 0.1 0 0 0 0.0068359375 0.064375 A 0.1 0.1 0 0 0 0.0056835938 0.067441406 A 0.1 0.1 0 0 0 0.0032617187 0.075390625 A 0.1 0.1 0 0 0 0.0020703125 0.080878906 A 0.1 0.1 0 0 0 0.0008984375 0.087519531 A 0.1 0.1 0 0 0 0 0.1 A 0.1 0.1 0 0 0 0.0008984375 0.11246094 A 0.1 0.1 0 0 0 0.0021289063 0.11939453 A 0.1 0.1 0 0 0 0.0032421875 0.12451172 A 0.1 0.1 0 0 0 0.005625 0.13238281 A 0.1 0.1 0 0 0 0.0069726563 0.13597656 A 0.1 0.1 0 0 0 0.010703125 0.14458984 A 0.1 0.1 0 0 0 0.010722656 0.14462891 A 0.1 0.1 0 0 0 0.055429687 0.18929688 A 0.1 0.1 0 0 0 0.064375 0.19316406 A 0.1 0.1 0 0 0 0.067441406 0.19431641 A 0.1 0.1 0 0 0 0.075390625 0.19673828 A 0.1 0.1 0 0 0 0.080878906 0.19792969 A 0.1 0.1 0 0 0 0.087519531 0.19910156 A 0.1 0.1 0 0 0 0.1 0.2 A 0.1 0.1 0 0 0 0.11246094 0.19910156 A 0.1 0.1 0 0 0 0.11939453 0.19787109 A 0.1 0.1 0 0 0 0.12451172 0.19675781 A 0.1 0.1 0 0 0 0.13238281 0.194375 A 0.1 0.1 0 0 0 0.13597656 0.19302734 A 0.1 0.1 0 0 0 0.14458984 0.18929688 A 0.1 0.1 0 0 0 0.14462891 0.18927734 A 0.1 0.1 0 0 0 0.18929688 0.14457031 A 0.1 0.1 0 0 0 0.19316406 0.135625 A 0.1 0.1 0 0 0 0.19431641 0.13255859 A 0.1 0.1 0 0 0 0.19673828 0.12460938 A 0.1 0.1 0 0 0 0.19792969 0.11912109 A 0.1 0.1 0 0 0 0.19910156 0.11248047 A 0.1 0.1 0 0 0 0.2 0.1 A 0.1 0.1 0 0 0 0.19933594 0.088710938 A 0.1 0.1 0 0 0 0.19925781 0.088144531 A 0.1 0.1 0 0 0 0.19730469 0.07703125 A 0.1 0.1 0 0 0 0.18943359 0.055351562 A 0.1 0.1 0 0 0 0.18941406 0.055292969 A 0.1 0.1 0 0 0 0.14462891 0.010546875 A 0.1 0.1 0 0 0 0.14457031 0.010527344 A 0.1 0.1 0 0 0 0.12300781 0.0026953125 A 0.1 0.1 0 0 0 0.12292969 0.0026757813 A 0.1 0.1 0 0 0 0.1228125 0.00265625 A 0.1 0.1 0 0 0 0.11179688 0.00072265625 A 0.1 0.1 0 0 0 0.11130859 0.0006640625 A 0.1 0.1 0 0 0 0.1 0 z M 0.14009766 0.019492188 A 0.090000004 0.090000004 0 0 1 0.18044922 0.059765625 L 0.14453125 0.077734375 A 0.050000001 0.050000001 0 0 0 0.12191406 0.055292969 L 0.14009766 0.019492188 z M 0.059785156 0.019550781 L 0.077734375 0.05546875 A 0.050000001 0.050000001 0 0 0 0.055292969 0.078085938 L 0.019492188 0.059902344 A 0.090000004 0.090000004 0 0 1 0.059785156 0.019550781 z M 0.1 0.059980469 A 0.040022217 0.040022217 0 0 1 0.11748047 0.064023438 A 0.04002222 0.04002222 0 0 1 0.13574219 0.082128906 A 0.04002222 0.04002222 0 0 1 0.13574219 0.082148438 A 0.040022217 0.040022217 0 0 1 0.13892578 0.090820312 A 0.040022217 0.040022217 0 0 1 0.14001953 0.1 A 0.040022217 0.040022217 0 0 1 0.13597656 0.11748047 A 0.04002222 0.04002222 0 0 1 0.11787109 0.13574219 A 0.040022217 0.040022217 0 0 1 0.11785156 0.13574219 A 0.040022217 0.040022217 0 0 1 0.10917969 0.13892578 A 0.040022217 0.040022217 0 0 1 0.1 0.14001953 A 0.040022217 0.040022217 0 0 1 0.082519531 0.13597656 A 0.04002222 0.04002222 0 0 1 0.064257812 0.11787109 A 0.040022217 0.040022217 0 0 1 0.064257812 0.11785156 A 0.040022217 0.040022217 0 0 1 0.061074219 0.10917969 A 0.040022217 0.040022217 0 0 1 0.059980469 0.1 A 0.040022217 0.040022217 0 0 1 0.064023438 0.082519531 A 0.04002222 0.04002222 0 0 1 0.082128906 0.064257812 A 0.04002222 0.04002222 0 0 1 0.082148438 0.064257812 A 0.040022217 0.040022217 0 0 1 0.090820312 0.061074219 A 0.040022217 0.040022217 0 0 1 0.1 0.059980469 z M 0.14470703 0.12191406 L 0.18050781 0.14009766 A 0.090000004 0.090000004 0 0 1 0.14021484 0.18044922 L 0.12226563 0.14453125 A 0.050000001 0.050000001 0 0 0 0.14470703 0.12191406 z M 0.05546875 0.12226563 A 0.050000001 0.050000001 0 0 0 0.078085938 0.14470703 L 0.059902344 0.18050781 A 0.090000004 0.090000004 0 0 1 0.019550781 0.14021484 L 0.05546875 0.12226563 z " />
    <path
       id="rect111"
       style="fill:#000000;fill-opacity:1;stroke-width:0.01"
       d="M 0.01 0.01 L 0.01 0.19 L 0.19 0.19 L 0.19 0.01 L 0.01 0.01 z M 0.02 0.02 L 0.18 0.02 L 0.18 0.18 L 0.02 0.18 L 0.02 0.02 z " />
  </g>
</svg>
