<?xml version="1.0" encoding="UTF-8" standalone="no"?>
<!-- Created with Inkscape (http://www.inkscape.org/) -->

<svg
   width="20"
   height="20"
   viewBox="0 0 0.2 0.2"
   version="1.1"
   id="svg1"
   inkscape:version="1.3.2 (091e20e, 2023-11-25, custom)"
   sodipodi:docname="1015-toggle.svg"
   xmlns:inkscape="http://www.inkscape.org/namespaces/inkscape"
   xmlns:sodipodi="http://sodipodi.sourceforge.net/DTD/sodipodi-0.dtd"
   xmlns="http://www.w3.org/2000/svg"
   xmlns:svg="http://www.w3.org/2000/svg">
  <sodipodi:namedview
     id="namedview1"
     pagecolor="#ffffff"
     bordercolor="#999999"
     borderopacity="1"
     inkscape:showpageshadow="2"
     inkscape:pageopacity="0"
     inkscape:pagecheckerboard="true"
     inkscape:deskcolor="#d1d1d1"
     inkscape:document-units="px"
     showgrid="true"
     inkscape:lockguides="false"
     inkscape:zoom="22.627417"
     inkscape:cx="5.6568542"
     inkscape:cy="11.998718"
     inkscape:window-width="1920"
     inkscape:window-height="1009"
     inkscape:window-x="-8"
     inkscape:window-y="-8"
     inkscape:window-maximized="1"
     inkscape:current-layer="layer1">
    <inkscape:grid
       id="grid1"
       units="px"
       originx="0"
       originy="0"
       spacingx="0.01"
       spacingy="0.01"
       empcolor="#0099e5"
       empopacity="0.30196078"
       color="#0099e5"
       opacity="0.14901961"
       empspacing="5"
       dotted="false"
       gridanglex="30"
       gridanglez="30"
       visible="true" />
  </sodipodi:namedview>
  <defs
     id="defs1" />
  <g
     inkscape:label="Layer 1"
     inkscape:groupmode="layer"
     id="layer1">
    <path
       id="path1"
       style="fill:#000000;stroke-width:0.01"
       d="M 0.1 0 A 0.1 0.1 0 0 0 0 0.1 A 0.1 0.1 0 0 0 0.1 0.2 A 0.1 0.1 0 0 0 0.14242188 0.19046875 A 0.1 0.1 0 0 0 0.2 0.1 A 0.1 0.1 0 0 0 0.18 0.040019531 L 0.18 0.04 L 0.17998047 0.04 A 0.1 0.1 0 0 0 0.16 0.020019531 L 0.16 0.02 L 0.15998047 0.02 A 0.1 0.1 0 0 0 0.1 0 z M 0.1 0.01 A 0.090000004 0.090000004 0 0 1 0.14117188 0.02 L 0.1 0.02 L 0.1 0.03 L 0.15619141 0.03 A 0.090000004 0.090000004 0 0 1 0.16673828 0.04 L 0.1 0.04 L 0.1 0.05 L 0.17458984 0.05 A 0.090000004 0.090000004 0 0 1 0.18054687 0.06 L 0.1 0.06 L 0.1 0.07 L 0.1846875 0.07 A 0.090000004 0.090000004 0 0 1 0.18746094 0.08 L 0.1 0.08 L 0.1 0.09 L 0.18921875 0.09 A 0.090000004 0.090000004 0 0 1 0.19 0.1 L 0.1 0.1 L 0.1 0.11 L 0.18921875 0.11 A 0.090000004 0.090000004 0 0 1 0.18746094 0.12 L 0.1 0.12 L 0.1 0.13 L 0.1846875 0.13 A 0.090000004 0.090000004 0 0 1 0.18054687 0.14 L 0.1 0.14 L 0.1 0.15 L 0.17458984 0.15 A 0.090000004 0.090000004 0 0 1 0.16673828 0.16 L 0.1 0.16 L 0.1 0.17 L 0.15619141 0.17 A 0.090000004 0.090000004 0 0 1 0.14117188 0.18 L 0.1 0.18 L 0.1 0.19 A 0.090000004 0.090000004 0 0 1 0.01 0.1 A 0.090000004 0.090000004 0 0 1 0.1 0.01 z " />
  </g>
</svg>
