<?xml version="1.0" encoding="UTF-8" standalone="no"?>
<!-- Created with Inkscape (http://www.inkscape.org/) -->

<svg
   width="20"
   height="20"
   viewBox="0 0 0.2 0.2"
   version="1.1"
   id="svg1"
   inkscape:version="1.3.2 (091e20e, 2023-11-25, custom)"
   sodipodi:docname="14-config.svg"
   xmlns:inkscape="http://www.inkscape.org/namespaces/inkscape"
   xmlns:sodipodi="http://sodipodi.sourceforge.net/DTD/sodipodi-0.dtd"
   xmlns="http://www.w3.org/2000/svg"
   xmlns:svg="http://www.w3.org/2000/svg">
  <sodipodi:namedview
     id="namedview1"
     pagecolor="#ffffff"
     bordercolor="#999999"
     borderopacity="1"
     inkscape:showpageshadow="2"
     inkscape:pageopacity="0"
     inkscape:pagecheckerboard="true"
     inkscape:deskcolor="#d1d1d1"
     inkscape:document-units="px"
     showgrid="true"
     inkscape:lockguides="false"
     inkscape:zoom="32"
     inkscape:cx="7.859375"
     inkscape:cy="10.515625"
     inkscape:window-width="1920"
     inkscape:window-height="1009"
     inkscape:window-x="-8"
     inkscape:window-y="-8"
     inkscape:window-maximized="1"
     inkscape:current-layer="layer1">
    <inkscape:grid
       id="grid1"
       units="px"
       originx="0"
       originy="0"
       spacingx="0.01"
       spacingy="0.01"
       empcolor="#0099e5"
       empopacity="0.30196078"
       color="#0099e5"
       opacity="0.14901961"
       empspacing="5"
       dotted="false"
       gridanglex="30"
       gridanglez="30"
       visible="true" />
  </sodipodi:namedview>
  <defs
     id="defs1" />
  <g
     inkscape:label="Layer 1"
     inkscape:groupmode="layer"
     id="layer1">
    <path
       id="path1"
       style="fill:#000000;stroke-width:0.01"
       d="M 0.1 0.02 A 0.079999998 0.079999998 0 0 0 0.02 0.1 A 0.079999998 0.079999998 0 0 0 0.1 0.18 A 0.079999998 0.079999998 0 0 0 0.18 0.1 A 0.079999998 0.079999998 0 0 0 0.1 0.02 z M 0.1 0.03 A 0.07 0.07 0 0 1 0.17 0.1 A 0.07 0.07 0 0 1 0.1 0.17 A 0.07 0.07 0 0 1 0.03 0.1 A 0.07 0.07 0 0 1 0.1 0.03 z " />
    <g
       id="g5">
      <rect
         style="fill:#000000;stroke-width:0.01"
         id="rect4"
         width="0.039999999"
         height="0.0099999998"
         x="0.079999998"
         y="0" />
      <rect
         style="fill:#000000;stroke-width:0.01"
         id="rect5"
         width="0.039999999"
         height="0.0099999998"
         x="0.079999998"
         y="0.19" />
    </g>
    <g
       id="g7"
       transform="rotate(135,0.1,0.1)">
      <rect
         style="fill:#000000;stroke-width:0.01"
         id="rect6"
         width="0.039999999"
         height="0.0099999998"
         x="0.079999998"
         y="0" />
      <rect
         style="fill:#000000;stroke-width:0.01"
         id="rect7"
         width="0.039999999"
         height="0.0099999998"
         x="0.079999998"
         y="0.19" />
    </g>
    <g
       id="g9"
       transform="rotate(90,0.1,0.1)">
      <rect
         style="fill:#000000;stroke-width:0.01"
         id="rect8"
         width="0.039999999"
         height="0.0099999998"
         x="0.079999998"
         y="0" />
      <rect
         style="fill:#000000;stroke-width:0.01"
         id="rect9"
         width="0.039999999"
         height="0.0099999998"
         x="0.079999998"
         y="0.19" />
    </g>
    <g
       id="g3"
       transform="rotate(45,0.1,0.1)">
      <rect
         style="fill:#000000;stroke-width:0.01"
         id="rect2"
         width="0.039999999"
         height="0.0099999998"
         x="0.079999998"
         y="0" />
      <rect
         style="fill:#000000;stroke-width:0.01"
         id="rect3"
         width="0.039999999"
         height="0.0099999998"
         x="0.079999998"
         y="0.19" />
    </g>
    <path
       id="path9"
       style="fill:#000000;stroke-width:0.01"
       d="M 0.1 0.050507812 A 0.049497474 0.049497474 0 0 0 0.050507812 0.1 A 0.049497474 0.049497474 0 0 0 0.1 0.14949219 A 0.049497474 0.049497474 0 0 0 0.14949219 0.1 A 0.049497474 0.049497474 0 0 0 0.1 0.050507812 z M 0.1 0.06 A 0.039999999 0.039999999 0 0 1 0.14 0.1 A 0.039999999 0.039999999 0 0 1 0.1 0.14 A 0.039999999 0.039999999 0 0 1 0.06 0.1 A 0.039999999 0.039999999 0 0 1 0.1 0.06 z " />
  </g>
</svg>
