<?xml version="1.0" encoding="UTF-8" standalone="no"?>
<!-- Created with Inkscape (http://www.inkscape.org/) -->

<svg
   width="20"
   height="20"
   viewBox="0 0 0.2 0.2"
   version="1.1"
   id="svg1"
   inkscape:version="1.3.2 (091e20e, 2023-11-25, custom)"
   sodipodi:docname="14-config.svg"
   xmlns:inkscape="http://www.inkscape.org/namespaces/inkscape"
   xmlns:sodipodi="http://sodipodi.sourceforge.net/DTD/sodipodi-0.dtd"
   xmlns="http://www.w3.org/2000/svg"
   xmlns:svg="http://www.w3.org/2000/svg">
  <sodipodi:namedview
     id="namedview1"
     pagecolor="#ffffff"
     bordercolor="#999999"
     borderopacity="1"
     inkscape:showpageshadow="2"
     inkscape:pageopacity="0"
     inkscape:pagecheckerboard="true"
     inkscape:deskcolor="#d1d1d1"
     inkscape:document-units="px"
     showgrid="true"
     inkscape:lockguides="false"
     inkscape:zoom="32"
     inkscape:cx="7.84375"
     inkscape:cy="9.953125"
     inkscape:window-width="1920"
     inkscape:window-height="1009"
     inkscape:window-x="-8"
     inkscape:window-y="-8"
     inkscape:window-maximized="1"
     inkscape:current-layer="layer1">
    <inkscape:grid
       id="grid1"
       units="px"
       originx="0"
       originy="0"
       spacingx="0.01"
       spacingy="0.01"
       empcolor="#0099e5"
       empopacity="0.30196078"
       color="#0099e5"
       opacity="0.14901961"
       empspacing="5"
       dotted="false"
       gridanglex="30"
       gridanglez="30"
       visible="true" />
  </sodipodi:namedview>
  <defs
     id="defs1" />
  <g
     inkscape:label="Layer 1"
     inkscape:groupmode="layer"
     id="layer1">
    <path
       id="rect70"
       style="fill:#010000;fill-opacity:1;stroke-width:0.01"
       d="M 0.08 0 L 0.08 0.017734375 A 0.0848528 0.084852807 0 0 0 0.055917969 0.027636719 L 0.0434375 0.01515625 L 0.01515625 0.0434375 L 0.027636719 0.055917969 A 0.0848528 0.084852807 0 0 0 0.017734375 0.08 L 0 0.08 L 0 0.12 L 0.017734375 0.12 A 0.0848528 0.084852807 0 0 0 0.027636719 0.14408203 L 0.01515625 0.1565625 L 0.0434375 0.18484375 L 0.055917969 0.17236328 A 0.0848528 0.084852807 0 0 0 0.08 0.18226563 L 0.08 0.2 L 0.12 0.2 L 0.12 0.18226563 A 0.0848528 0.084852807 0 0 0 0.14408203 0.17236328 L 0.1565625 0.18484375 L 0.18484375 0.1565625 L 0.17236328 0.14408203 A 0.0848528 0.084852807 0 0 0 0.18226563 0.12 L 0.2 0.12 L 0.2 0.08 L 0.18244141 0.08 A 0.0848528 0.084852807 0 0 0 0.17244141 0.055839844 L 0.18484375 0.0434375 L 0.1565625 0.01515625 L 0.14416016 0.027558594 A 0.0848528 0.084852807 0 0 0 0.12 0.017558594 L 0.12 0 L 0.08 0 z M 0.1 0.04 A 0.059999999 0.059999999 0 0 1 0.16 0.1 A 0.059999999 0.059999999 0 0 1 0.1 0.16 A 0.059999999 0.059999999 0 0 1 0.04 0.1 A 0.059999999 0.059999999 0 0 1 0.1 0.04 z " />
    <rect
       style="fill:#010000;fill-opacity:1;stroke-width:0.01"
       id="rect71"
       width="0.039999999"
       height="0.02"
       x="0.079999998"
       y="0.17999999" />
    <rect
       style="fill:#010000;fill-opacity:1;stroke-width:0.01"
       id="rect74"
       width="0.039999999"
       height="0.02"
       x="-0.020000001"
       y="-0.061421365"
       transform="rotate(135)" />
    <rect
       style="fill:#010000;fill-opacity:1;stroke-width:0.01"
       id="rect77"
       width="0.039999999"
       height="0.02"
       x="0.079999998"
       y="-0.020000007"
       transform="rotate(90)" />
    <rect
       style="fill:#010000;fill-opacity:1;stroke-width:0.01"
       id="rect69"
       width="0.039999999"
       height="0.02"
       x="0.12142135"
       y="0.079999991"
       transform="rotate(45)" />
  </g>
</svg>
