<svg width="1530" height="1529" xmlns="http://www.w3.org/2000/svg" xmlns:xlink="http://www.w3.org/1999/xlink" xml:space="preserve" overflow="hidden"><g transform="translate(-1435 -473)"><rect x="1435" y="473" width="1530" height="1529" fill="#000000" fill-opacity="0"/><path d="M1484.11 1788.78 1486.98 1797.72C1512.05 1855.12 1570.75 1895.39 1639.15 1895.39L2926 1895.39 2926 2002 1639.15 2002C1547.94 2002 1474 1930.4 1474 1842.08 1474 1831.04 1475.16 1820.26 1477.36 1809.85ZM2915.95 1575.26 2922.65 1596.17C2924.84 1606.54 2925.99 1617.28 2925.99 1628.28 2925.99 1716.28 2852.32 1787.61 2761.44 1787.61L1638.55 1788.2C1612.99 1788.2 1588.79 1793.84 1567.21 1803.91L1559.79 1808.05 1543.75 1793.3C1532.95 1781.84 1523.88 1768.95 1516.83 1755.08L1511.22 1741.72 1522.2 1728.84C1551.97 1700 1593.11 1682.17 1638.55 1682.17L2761.44 1681.58C2829.6 1681.58 2888.08 1641.46 2913.06 1584.27ZM1474 1468.94 2760.84 1468.94C2806.45 1468.94 2847.74 1486.84 2877.62 1515.78L2891.82 1532.45 2883.17 1553.06C2876.12 1566.94 2867.05 1579.83 2856.25 1591.29L2847.25 1599.56 2832.44 1591.32C2810.78 1581.22 2786.49 1575.55 2760.84 1575.55L1474 1575.55ZM2563 646.489C2581.99 646.489 2600.98 662.116 2615.47 693.368L2926 1363.12 2707.82 1363.12 2453.91 815.482 2510.53 693.368C2525.02 662.116 2544.01 646.489 2563 646.489ZM1837 646.489C1855.99 646.489 1874.98 662.116 1889.47 693.368L1946.09 815.481 1692.18 1363.12 1474 1363.12 1784.53 693.368C1799.02 662.116 1818.01 646.489 1837 646.489ZM2200 473C2223.59 473 2247.18 492.41 2265.18 531.228L2650.88 1363.12 1749.12 1363.12 2134.82 531.228C2152.82 492.41 2176.41 473 2200 473Z" fill="#3A8EF4" fill-rule="evenodd"/></g></svg>