<svg width="1299" height="1299" xmlns="http://www.w3.org/2000/svg" xmlns:xlink="http://www.w3.org/1999/xlink" xml:space="preserve" overflow="hidden"><g><rect x="0" y="0" width="1299" height="1299" fill="#000000" fill-opacity="0"/><path d="M224 224 224.001 224 224.001 224 245.897 224.554C470.718 235.95 649.5 421.846 649.5 649.5 649.5 877.154 470.718 1063.05 245.897 1074.45L224.001 1075 224.001 1075 224 1075C224 847.347 402.782 661.45 627.603 650.054L649.499 649.5 627.603 648.946C402.782 637.55 224 451.653 224 224ZM1075 224 1075 224 1075 224C1075 451.653 896.218 637.55 671.397 648.946L649.501 649.5 671.397 650.054C896.218 661.45 1075 847.347 1075 1075L1075 1075 1075 1075 1053.1 1074.45C828.282 1063.05 649.5 877.154 649.5 649.5 649.5 421.846 828.282 235.95 1053.1 224.554Z" fill="#B100FF" fill-rule="evenodd"/></g></svg>