<svg width="331" height="349" xmlns="http://www.w3.org/2000/svg" xmlns:xlink="http://www.w3.org/1999/xlink" xml:space="preserve" overflow="hidden"><defs><clipPath id="clip0"><rect x="-778" y="475" width="331" height="349"/></clipPath><linearGradient x1="-613" y1="596.5" x2="-778" y2="596.5" gradientUnits="userSpaceOnUse" spreadMethod="reflect" id="fill1"><stop offset="0" stop-color="#3E9FF0"/><stop offset="0.01" stop-color="#3E9FF0"/><stop offset="0.99" stop-color="#4472C4"/><stop offset="1" stop-color="#4472C4"/></linearGradient><linearGradient x1="-613" y1="596.5" x2="-447" y2="596.5" gradientUnits="userSpaceOnUse" spreadMethod="reflect" id="fill2"><stop offset="0" stop-color="#3E9FF0"/><stop offset="0.01" stop-color="#3E9FF0"/><stop offset="0.99" stop-color="#4472C4"/><stop offset="1" stop-color="#4472C4"/></linearGradient><linearGradient x1="-612.5" y1="475" x2="-612.5" y2="678" gradientUnits="userSpaceOnUse" spreadMethod="reflect" id="fill3"><stop offset="0" stop-color="#78BCF5"/><stop offset="0.01" stop-color="#78BCF5"/><stop offset="0.99" stop-color="#3E9FF0"/><stop offset="1" stop-color="#3E9FF0"/></linearGradient><linearGradient x1="-778" y1="726.5" x2="-447" y2="726.5" gradientUnits="userSpaceOnUse" spreadMethod="reflect" id="fill4"><stop offset="0" stop-color="#3E9FF0"/><stop offset="0.01" stop-color="#3E9FF0"/><stop offset="0.99" stop-color="#4472C4"/><stop offset="1" stop-color="#4472C4"/></linearGradient><linearGradient x1="-447" y1="763" x2="-778" y2="763" gradientUnits="userSpaceOnUse" spreadMethod="reflect" id="fill5"><stop offset="0" stop-color="#3E9FF0"/><stop offset="0.01" stop-color="#3E9FF0"/><stop offset="0.99" stop-color="#4472C4"/><stop offset="1" stop-color="#4472C4"/></linearGradient><linearGradient x1="-778" y1="799.5" x2="-447" y2="799.5" gradientUnits="userSpaceOnUse" spreadMethod="reflect" id="fill6"><stop offset="0" stop-color="#3E9FF0"/><stop offset="0.01" stop-color="#3E9FF0"/><stop offset="0.99" stop-color="#4472C4"/><stop offset="1" stop-color="#4472C4"/></linearGradient></defs><g clip-path="url(#clip0)" transform="translate(778 -475)"><path d="M-695.5 515C-691.184 515-686.867 518.554-683.574 525.663L-613 678-778 678-707.426 525.663C-704.132 518.554-699.816 515-695.5 515Z" fill="url(#fill1)" fill-rule="evenodd"/><path d="M-530 515C-525.657 515-521.315 518.554-518.002 525.663L-447 678-613 678-541.998 525.663C-538.685 518.554-534.342 515-530 515Z" fill="url(#fill2)" fill-rule="evenodd"/><path d="M-612.5 475C-607.137 475-601.775 479.427-597.683 488.28L-510 678-715 678-627.317 488.28C-623.225 479.427-617.863 475-612.5 475Z" fill="url(#fill3)" fill-rule="evenodd"/><path d="M-778 702-484.649 702C-463.856 702-447 718.454-447 738.75-447 741.287-447.263 743.764-447.765 746.157L-449.305 751-449.959 748.945C-455.674 735.755-469.054 726.5-484.649 726.5L-778 726.5-778 702Z" fill="url(#fill4)" fill-rule="evenodd"/><path d="M-449.29 727-447.762 731.714C-447.262 734.053-447 736.475-447 738.956-447 758.802-463.794 774.89-484.511 774.89L-740.489 775.022C-756.026 775.022-769.358 784.072-775.052 796.969L-775.71 799-777.238 794.286C-777.737 791.946-778 789.524-778 787.044-778 767.198-761.205 751.11-740.489 751.11L-484.511 750.978C-468.974 750.978-455.642 741.928-449.948 729.031L-449.29 727Z" fill="url(#fill5)" fill-rule="evenodd"/><path d="M-447 824-740.351 824C-761.144 824-778 807.547-778 787.25-778 784.713-777.737 782.236-777.235 779.844L-775.695 775-775.041 777.055C-769.326 790.246-755.946 799.501-740.351 799.501L-447 799.501-447 824Z" fill="url(#fill6)" fill-rule="evenodd"/></g></svg>