<svg width="2439" height="262" xmlns="http://www.w3.org/2000/svg" xmlns:xlink="http://www.w3.org/1999/xlink" xml:space="preserve" overflow="hidden"><g transform="translate(362 -519)"><path d="M1035.56 702.74 1073 702.74 1073 746.69 1213.67 746.69 1213.67 776.463 1035.56 776.463ZM861.803 702.456C845.163 702.456 832.447 704.489 823.656 708.552 814.863 712.617 810.468 718.619 810.468 726.558 810.468 734.497 814.863 740.499 823.656 744.564 832.447 748.628 845.163 750.659 861.803 750.659 877.874 750.659 890.4 748.628 899.381 744.564 908.362 740.499 912.853 734.497 912.853 726.558 912.853 718.619 908.362 712.617 899.381 708.552 890.4 704.489 877.874 702.456 861.803 702.456ZM-72.2393 700.755-34.8011 700.755-34.8011 746.69 105.589 746.69 105.589 776.463-72.2393 776.463ZM193.698 689.129 231.135 689.129 231.135 745.556 374.078 745.556 374.078 775.612 193.698 775.612ZM861.803 673.534C875.227 673.534 887.328 674.763 898.104 677.221 908.882 679.678 918.1 683.223 925.758 687.854 933.415 692.485 939.324 698.061 943.483 704.583 947.643 711.105 949.723 718.429 949.723 726.558 949.723 734.687 947.643 742.011 943.483 748.533 939.324 755.055 933.415 760.632 925.758 765.262 918.1 769.894 908.882 773.439 898.104 775.896 887.328 778.353 875.227 779.582 861.803 779.582 848.567 779.582 836.513 778.353 825.641 775.896 814.769 773.439 805.457 769.894 797.705 765.262 789.953 760.632 783.997 755.055 779.837 748.533 775.677 742.011 773.598 734.687 773.598 726.558 773.598 718.429 775.677 711.105 779.837 704.583 783.997 698.061 789.953 692.485 797.705 687.854 805.457 683.223 814.769 679.678 825.641 677.221 836.513 674.763 848.567 673.534 861.803 673.534ZM1063.93 614.556C1055.98 614.556 1049.65 616.495 1044.92 620.369 1040.2 624.244 1037.83 629.774 1037.83 636.957 1037.83 644.328 1040.2 649.952 1044.92 653.828 1049.65 657.703 1055.98 659.641 1063.93 659.641 1071.49 659.641 1077.68 657.703 1082.5 653.828 1087.32 649.952 1089.73 644.328 1089.73 636.957 1089.73 629.774 1087.32 624.244 1082.5 620.369 1077.68 616.495 1071.49 614.556 1063.93 614.556ZM-32.5332 614.273C-41.0417 614.273-47.8951 616.116-53.0947 619.803-58.2943 623.488-60.8947 628.923-60.8947 636.106-60.8947 643.289-58.2943 648.771-53.0947 652.552-47.8951 656.333-41.0417 658.223-32.5332 658.223-24.0247 658.223-17.17 656.333-11.9704 652.552-6.77078 648.771-4.17163 643.289-4.17163 636.106-4.17163 628.923-6.77078 623.488-11.9704 619.803-17.17 616.116-24.0247 614.273-32.5332 614.273ZM1063.93 585.918C1072.81 585.918 1080.99 587.146 1088.46 589.604 1095.93 592.062 1102.35 595.558 1107.74 600.096 1113.13 604.632 1117.34 610.02 1120.37 616.258 1123.39 622.495 1124.9 629.396 1124.9 636.957 1124.9 644.518 1123.39 651.466 1120.37 657.798 1117.34 664.13 1113.13 669.565 1107.74 674.101 1102.35 678.638 1095.93 682.183 1088.46 684.735 1080.99 687.286 1072.81 688.563 1063.93 688.563 1055.04 688.563 1046.81 687.286 1039.25 684.735 1031.69 682.183 1025.21 678.638 1019.82 674.101 1014.44 669.565 1010.23 664.13 1007.2 657.798 1004.18 651.466 1002.66 644.518 1002.66 636.957 1002.66 629.396 1004.18 622.495 1007.2 616.258 1010.23 610.02 1014.44 604.632 1019.82 600.096 1025.21 595.558 1031.69 592.062 1039.25 589.604 1046.81 587.146 1055.04 585.918 1063.93 585.918ZM-32.5332 585.918C-23.2679 585.918-14.7123 587.146-6.86511 589.604 0.980865 592.062 7.74124 595.511 13.4135 599.954 19.0858 604.396 23.5287 609.689 26.7433 615.832 29.9578 621.976 31.5645 628.733 31.5645 636.106 31.5645 643.667 29.9578 650.52 26.7433 656.664 23.5287 662.807 19.0858 668.1 13.4135 672.542 7.74124 676.985 0.980865 680.434-6.86511 682.892-14.7123 685.349-23.2679 686.578-32.5332 686.578-41.9858 686.578-50.6369 685.349-58.4829 682.892-66.3301 680.434-73.0892 676.985-78.7615 672.542-84.4338 668.1-88.8307 662.807-91.9498 656.664-95.07 650.52-96.6295 643.667-96.6295 636.106-96.6295 628.733-95.07 621.976-91.9498 615.832-88.8307 609.689-84.4338 604.396-78.7615 599.954-73.0892 595.511-66.3301 592.062-58.4829 589.604-50.6369 587.146-41.9858 585.918-32.5332 585.918ZM200.506 570.039 200.506 637.24 253.824 637.24 253.824 570.039ZM-362 549.908-265.287 549.908-265.287 580.247-325.13 580.247-325.13 691.398C-312.65 691.02-300.738 690.406-289.394 689.555-278.049 688.704-266.138 687.145-253.658 684.876L-250.822 715.216C-266.893 718.241-282.256 720.178-296.91 721.029-311.563 721.88-327.209 722.304-343.848 722.304L-362 722.304ZM1588.99 544.804 1735.34 544.804 1735.34 575.71 1681.45 575.71 1681.45 590.171C1681.45 600.757 1682.77 611.39 1685.42 622.07 1688.07 632.751 1692.09 642.816 1697.47 652.268 1702.86 661.72 1709.58 670.226 1717.61 677.787 1725.65 685.349 1735.15 691.398 1746.11 695.935L1725.7 725.424C1710.38 718.808 1697.57 709.498 1687.27 697.495 1676.96 685.491 1668.88 671.455 1663.02 655.388 1657.15 672.589 1648.98 687.901 1638.48 701.322 1627.99 714.743 1615.08 724.951 1599.77 731.946L1578.5 702.173C1589.47 697.258 1599.01 690.737 1607.14 682.608 1615.27 674.479 1622.03 665.453 1627.42 655.529 1632.81 645.605 1636.83 635.019 1639.48 623.772 1642.12 612.524 1643.45 601.323 1643.45 590.171L1643.45 575.71 1588.99 575.71ZM163.636 540.55 290.411 540.55 290.411 666.73 163.636 666.73ZM1867.98 537.715 2049.77 537.715 2049.77 567.77 1905.7 567.77 1905.7 636.39 2051.76 636.39 2051.76 666.445 1977.17 666.445 1977.17 720.887 2077 720.887 2077 751.51 1840.46 751.51 1840.46 720.887 1939.73 720.887 1939.73 666.445 1867.98 666.445ZM439.782 530.909 619.311 530.909 619.311 551.892C619.311 561.722 619.121 572.166 618.743 583.224 618.366 594.283 616.852 606.9 614.206 621.078L647.105 621.078 647.105 650.85 547.272 650.85 547.272 687.712 619.878 687.712 619.878 781 582.157 781 582.157 717.201 434.393 717.201 434.393 687.712 509.835 687.712 509.835 650.85 410.57 650.85 410.57 621.078 576.769 621.078C579.227 609.169 580.786 598.347 581.447 588.612 582.11 578.877 582.441 569.661 582.441 560.966L439.782 560.966ZM1313.98 526.089 1351.42 526.089 1351.42 562.383 1404.74 562.383 1404.74 592.156 1351.42 592.156 1351.42 601.229C1351.42 610.492 1352.74 620.038 1355.39 629.868 1358.03 639.698 1361.96 649.007 1367.16 657.798 1372.36 666.588 1378.93 674.669 1386.87 682.041 1394.81 689.413 1404.17 695.367 1414.95 699.905L1395.09 728.543C1380.35 722.494 1367.82 713.562 1357.51 701.748 1347.21 689.933 1339.13 676.559 1333.27 661.625 1327.4 677.693 1319.27 691.965 1308.87 704.442 1298.48 716.917 1285.81 726.463 1270.87 733.079L1250.73 704.442C1261.51 699.716 1270.82 693.525 1278.67 685.868 1286.52 678.213 1293.09 669.754 1298.38 660.492 1303.67 651.229 1307.6 641.493 1310.15 631.286 1312.7 621.078 1313.98 611.059 1313.98 601.229L1313.98 592.156 1259.53 592.156 1259.53 562.383 1313.98 562.383ZM1759.45 519.851 1796.88 519.851 1796.88 781 1759.45 781ZM1428.84 519.851 1466.28 519.851 1466.28 781 1428.84 781ZM1170.57 519.851 1208 519.851 1208 718.902 1170.57 718.902 1170.57 670.416 1136.53 670.416 1136.53 640.643 1170.57 640.643 1170.57 614.556 1136.53 614.556 1136.53 584.783 1170.57 584.783ZM910.584 519.851 948.021 519.851 948.021 670.132 910.584 670.132 910.584 645.179 853.01 645.179 853.01 615.124 910.584 615.124 910.584 591.022 856.413 591.022C840.342 631.853 803.566 660.302 746.087 676.37L731.622 646.881C761.496 638.942 783.855 628.166 798.698 614.556 813.541 600.946 822.191 585.256 824.648 567.487L745.803 567.487 745.803 537.431 865.489 537.431C865.489 545.559 864.922 553.499 863.788 561.25L910.584 561.25ZM329.834 519.851 367.555 519.851 367.555 705.576 329.834 705.576ZM58.792 519.851 96.2291 519.851 96.2291 599.529 130.83 599.529 130.83 630.435 96.2291 630.435 96.2291 715.216 58.792 715.216ZM-51.5352 519.567-13.8141 519.567-13.8141 547.355 44.6113 547.355 44.3271 576.561-109.392 576.561-109.392 547.355-51.5352 547.355ZM-180.769 519.567-145.317 519.567-145.317 781-180.769 781-180.769 650.283-204.309 650.283-204.309 768.807-239.194 768.807-239.194 524.671-204.309 524.671-204.309 620.227-180.769 620.227ZM1045.21 519 1082.64 519 1082.64 547.355 1133.7 547.355 1133.7 576.561 990.469 576.561 990.469 547.355 1045.21 547.355Z" fill="#141414" fill-rule="evenodd"/></g></svg>