<svg width="1299" height="1299" xmlns="http://www.w3.org/2000/svg" xmlns:xlink="http://www.w3.org/1999/xlink" xml:space="preserve" overflow="hidden"><g><rect x="0" y="0" width="1299" height="1299" fill="#000000" fill-opacity="0"/><path d="M650 213.5C665.067 213.5 679.956 214.264 694.63 215.754L698.548 216.352 671.225 220.522C513.731 252.75 395.259 392.1 395.259 559.121 395.259 750.002 549.998 904.742 740.879 904.742 907.9 904.742 1047.25 786.269 1079.48 628.775L1083.65 601.452 1084.25 605.371C1085.74 620.044 1086.5 634.933 1086.5 650 1086.5 891.073 891.073 1086.5 650 1086.5 408.928 1086.5 213.5 891.073 213.5 650 213.5 408.928 408.928 213.5 650 213.5Z" stroke="#000000" stroke-width="22.9167" stroke-linecap="round" stroke-linejoin="round" stroke-miterlimit="10" fill-rule="evenodd"/></g></svg>