<svg width="1299" height="1299" xmlns="http://www.w3.org/2000/svg" xmlns:xlink="http://www.w3.org/1999/xlink" xml:space="preserve" overflow="hidden"><g><rect x="0" y="0" width="1299" height="1299" fill="#000000" fill-opacity="0"/><path d="M101.888 528.886C141.371 489.403 205.386 489.403 244.87 528.886L595.174 879.19C634.657 918.673 634.657 982.688 595.173 1022.17L595.173 1022.17C555.69 1061.65 491.675 1061.65 452.191 1022.17L101.888 671.867C62.4053 632.384 62.4053 568.369 101.889 528.885Z" fill-rule="evenodd"/><path d="M1197.48 276.882C1236.96 316.365 1236.96 380.38 1197.48 419.863L595.173 1022.17C555.69 1061.65 491.675 1061.65 452.192 1022.17L452.192 1022.17C412.709 982.688 412.708 918.673 452.191 879.19L1054.5 276.881C1093.98 237.398 1158 237.399 1197.48 276.882Z" fill-rule="evenodd"/></g></svg>