<svg width="1299" height="1299" xmlns="http://www.w3.org/2000/svg" xmlns:xlink="http://www.w3.org/1999/xlink" xml:space="preserve" overflow="hidden"><g><rect x="0" y="0" width="1299" height="1299" fill="#000000" fill-opacity="0"/><path d="M651.287 899.425C611.499 899.425 579.245 931.679 579.245 971.466 579.245 1011.25 611.499 1043.51 651.287 1043.51 691.074 1043.51 723.328 1011.25 723.328 971.466 723.328 931.679 691.074 899.425 651.287 899.425ZM652.656 255.493C613.624 255.493 581.983 287.134 581.983 326.166L581.983 732.298C581.983 771.33 613.624 802.971 652.656 802.971L652.655 802.971C691.687 802.971 723.328 771.33 723.328 732.298 723.328 596.921 723.329 461.543 723.329 326.166 723.329 287.134 691.687 255.493 652.656 255.493ZM649.5 95.9999C955.19 95.9999 1203 343.81 1203 649.5 1203 955.19 955.19 1203 649.5 1203 343.81 1203 95.9999 955.19 95.9999 649.5 95.9999 343.81 343.81 95.9999 649.5 95.9999Z" fill-rule="evenodd"/></g></svg>