<svg width="1300" height="1299" xmlns="http://www.w3.org/2000/svg" xmlns:xlink="http://www.w3.org/1999/xlink" xml:space="preserve" overflow="hidden"><defs><clipPath id="clip0"><rect x="0" y="0" width="1300" height="1299"/></clipPath></defs><g clip-path="url(#clip0)"><rect x="0" y="0" width="1299" height="1299" fill="#000000" fill-opacity="0"/><path d="M342 649.5C342 479.672 479.672 342 649.5 342 819.328 342 957 479.672 957 649.5 957 819.328 819.328 957 649.5 957 479.672 957 342 819.328 342 649.5Z" fill-rule="evenodd"/><path d="M600 50.5C600 22.6096 622.609-1.52139e-14 650.5-3.04279e-14L650.5 0C678.39-1.52139e-14 701 22.6096 701 50.5L701 188.5C701 216.39 678.39 239 650.5 239L650.5 239C622.609 239 600 216.39 600 188.5Z" fill-rule="evenodd"/><path d="M600 1110.5C600 1082.61 622.609 1060 650.5 1060L650.5 1060C678.39 1060 701 1082.61 701 1110.5L701 1248.5C701 1276.39 678.39 1299 650.5 1299L650.5 1299C622.609 1299 600 1276.39 600 1248.5Z" fill-rule="evenodd"/><path d="M1109.95 1037.38C1129.75 1057.19 1129.75 1089.29 1109.95 1109.09L1109.95 1109.09C1090.15 1128.89 1058.04 1128.89 1038.24 1109.09L941.012 1011.86C921.211 992.06 921.211 959.956 941.012 940.154L941.012 940.155C960.814 920.354 992.918 920.354 1012.72 940.155Z" fill-rule="evenodd"/><path d="M360.08 287.516C379.881 307.317 379.881 339.421 360.08 359.222L360.08 359.222C340.279 379.024 308.174 379.024 288.373 359.222L191.144 261.992C171.342 242.191 171.342 210.087 191.144 190.286L191.144 190.286C210.945 170.485 243.049 170.485 262.85 190.286Z" fill-rule="evenodd"/><path d="M1038.24 190.286C1058.04 170.484 1090.15 170.485 1109.95 190.286L1109.95 190.286C1129.75 210.087 1129.75 242.191 1109.95 261.992L1012.72 359.222C992.919 379.023 960.815 379.023 941.014 359.222L941.014 359.222C921.213 339.421 921.213 307.317 941.014 287.515Z" fill-rule="evenodd"/><path d="M288.375 940.154C308.176 920.353 340.28 920.353 360.082 940.155L360.082 940.155C379.883 959.956 379.883 992.06 360.082 1011.86L262.852 1109.09C243.051 1128.89 210.946 1128.89 191.145 1109.09L191.145 1109.09C171.344 1089.29 171.344 1057.19 191.145 1037.38Z" fill-rule="evenodd"/><path d="M1249.5 599C1277.39 599 1300 621.61 1300 649.5L1300 649.5C1300 677.391 1277.39 700 1249.5 700L1111.5 700C1083.61 700 1061 677.391 1061 649.5L1061 649.5C1061 621.61 1083.61 599 1111.5 599Z" fill-rule="evenodd"/><path d="M189.5 599C217.39 599 240 621.61 240 649.5L240 649.5C240 677.391 217.39 700 189.5 700L51.5 700C23.6096 700 1.00005 677.391 1.00005 649.5L1.00005 649.5C1.00005 621.61 23.6096 599 51.5 599Z" fill-rule="evenodd"/></g></svg>