<svg width="1299" height="1299" xmlns="http://www.w3.org/2000/svg" xmlns:xlink="http://www.w3.org/1999/xlink" xml:space="preserve" overflow="hidden"><g><rect x="0" y="0" width="1299" height="1299" fill="#000000" fill-opacity="0"/><path d="M268.191 839 546.848 981.065C603.541 1009.97 695.459 1009.97 752.153 981.065L1030.81 839 1128.48 888.795C1185.17 917.698 1185.17 964.56 1128.48 993.463L752.153 1185.32C695.459 1214.23 603.541 1214.23 546.848 1185.32L170.52 993.463C113.827 964.56 113.827 917.698 170.52 888.795Z" fill-rule="evenodd"/><path d="M268.191 547 546.848 689.451C603.541 718.432 695.459 718.432 752.153 689.451L1030.81 547 1128.48 596.93C1185.17 625.912 1185.17 672.901 1128.48 701.883L752.153 894.264C695.459 923.246 603.541 923.246 546.848 894.264L170.52 701.883C113.827 672.901 113.827 625.912 170.52 596.93Z" fill-rule="evenodd"/><path d="M649.5 92.0001C686.653 92.0001 723.806 99.2429 752.153 113.729L1128.48 306.042C1185.17 335.014 1185.17 381.986 1128.48 410.958L752.153 603.271C695.459 632.243 603.541 632.243 546.848 603.271L170.52 410.958C113.827 381.986 113.827 335.014 170.52 306.042L546.848 113.729C575.194 99.2429 612.347 92.0001 649.5 92.0001Z" fill-rule="evenodd"/></g></svg>