<svg width="1299" height="1299" xmlns="http://www.w3.org/2000/svg" xmlns:xlink="http://www.w3.org/1999/xlink" xml:space="preserve" overflow="hidden"><g><rect x="0" y="0" width="1299" height="1299" fill="#000000" fill-opacity="0"/><path d="M96.8685 711.665 95.7149 713.652C86.2598 738.584 100.442 765.391 138.262 784.7L539.935 989.775C600.446 1020.67 698.555 1020.67 759.066 989.775L1160.74 784.7C1198.56 765.391 1212.74 738.584 1203.29 713.652L1202.13 711.665 1212.06 716.734C1278.65 750.729 1278.65 805.847 1212.06 839.843L770.065 1065.5C703.479 1099.5 595.521 1099.5 528.935 1065.5L86.9397 839.843C20.3538 805.847 20.3538 750.729 86.9397 716.734ZM649.5 208C683.977 208 718.454 214.715 744.76 228.145L1093.98 406.442C1113.71 416.515 1126.04 428.934 1130.98 441.94L1132.24 448.648 1133.44 448.648 1133.44 455.074 1133.44 455.077 1133.44 455.08 1133.44 695.724 1133.44 695.725C1133.44 713.327 1120.29 730.93 1093.98 744.36L744.76 922.657C692.15 949.517 606.851 949.517 554.241 922.657L205.016 744.36C178.71 730.93 165.558 713.327 165.558 695.725L165.558 695.725 165.558 695.725 165.558 448.648 166.765 448.648 168.024 441.94C172.956 428.934 185.287 416.515 205.016 406.442L554.241 228.145C580.546 214.715 615.023 208 649.5 208Z" fill-rule="evenodd"/></g></svg>