<svg width="1299" height="1299" xmlns="http://www.w3.org/2000/svg" xmlns:xlink="http://www.w3.org/1999/xlink" xml:space="preserve" overflow="hidden"><g><rect x="0" y="0" width="1299" height="1299" fill="#000000" fill-opacity="0"/><path d="M346.71 124.913C489.57 163.193 596.131 269.324 641.008 399.345L649.688 435.518 658.366 399.345C703.244 269.324 809.805 163.193 952.666 124.913 992.859 274.917 948.257 427.666 848.242 532.265L837.203 542 870.83 532.034C1005.87 505.889 1151.06 545.107 1255.64 649.688 1151.06 754.269 1005.87 793.488 870.83 767.342L835.164 756.772 862.15 782.375C952.313 886.25 990.945 1031.6 952.666 1174.46 809.805 1136.18 703.244 1030.05 658.367 900.029L649.688 863.855 641.008 900.029C596.131 1030.05 489.57 1136.18 346.709 1174.46 306.515 1024.46 351.118 871.71 451.132 767.111L462.169 757.378 428.546 767.342C293.506 793.488 148.313 754.27 43.731 649.688 148.313 545.106 293.506 505.888 428.546 532.034L462.172 541.999 451.133 532.264C351.118 427.666 306.516 274.917 346.71 124.913Z" fill="#000000" fill-rule="evenodd" fill-opacity="0.501961"/><path d="M124.914 346.709C267.774 308.429 413.125 347.062 517 437.224L542.603 464.211 532.033 428.545C505.888 293.505 545.106 148.312 649.687 43.7304 759.497 153.541 797.245 308.126 762.93 448.719L758.237 462.669 782.376 437.225C886.251 347.063 1031.6 308.43 1174.46 346.709 1136.18 489.57 1030.05 596.131 900.03 641.008L863.857 649.687 900.029 658.367C1030.05 703.244 1136.18 809.805 1174.46 952.665 1031.6 990.945 886.25 952.313 782.375 862.15L756.771 835.162 767.342 870.83C793.488 1005.87 754.269 1151.06 649.688 1255.64 539.877 1145.83 502.13 991.249 536.445 850.656L541.137 836.709 517.001 862.151C413.125 952.313 267.775 990.946 124.914 952.666 163.194 809.805 269.325 703.245 399.346 658.367L433.45 650.185 419.023 647.273C280.108 606.696 165.107 496.713 124.914 346.709Z" fill-rule="evenodd"/></g></svg>