<svg width="1299" height="1299" xmlns="http://www.w3.org/2000/svg" xmlns:xlink="http://www.w3.org/1999/xlink" xml:space="preserve" overflow="hidden"><g><rect x="0" y="0" width="1299" height="1299" fill="#000000" fill-opacity="0"/><path d="M80.0001 80.0001 80.0008 80.0001 80.0015 80.0001 109.333 80.7419C410.503 96.0082 650 345.035 650 650 650 954.965 410.503 1203.99 109.333 1219.26L80.0015 1220 80.0008 1220 80.0001 1220C80.0001 915.035 319.497 666.008 620.667 650.742L649.999 650 620.667 649.258C319.497 633.992 80.0001 384.965 80.0001 80.0001ZM1220 80.0001 1220 80.0001 1220 80.0001C1220 384.965 980.503 633.992 679.333 649.258L650.002 650 679.333 650.742C980.503 666.008 1220 915.035 1220 1220L1220 1220 1220 1220 1190.67 1219.26C889.497 1203.99 650 954.965 650 650 650 345.035 889.497 96.0082 1190.67 80.7419Z" fill-rule="evenodd"/></g></svg>