<svg width="2477" height="453" xmlns="http://www.w3.org/2000/svg" xmlns:xlink="http://www.w3.org/1999/xlink" xml:space="preserve" overflow="hidden"><defs><clipPath id="clip0"><rect x="1390" y="1011" width="2477" height="453"/></clipPath></defs><g clip-path="url(#clip0)" transform="translate(-1390 -1011)"><path d="M2527.07 1199.56C2510.37 1199.56 2495.62 1205.42 2482.82 1217.14 2470.02 1228.85 2462.13 1246.05 2459.17 1268.74L2586.06 1268.74C2586.06 1247.54 2581.24 1230.71 2571.59 1218.25 2561.94 1205.79 2547.1 1199.56 2527.07 1199.56ZM3073.43 1143.78 3155.25 1143.78 3155.25 1328.43C3155.25 1352.98 3158.59 1370 3165.27 1379.48 3171.94 1388.96 3183.08 1393.71 3198.66 1393.71 3211.65 1393.71 3222.78 1390.73 3232.05 1384.78 3241.33 1378.83 3251.35 1368.79 3262.11 1354.66L3262.11 1143.78 3343.92 1143.78 3343.92 1456.19 3277.13 1456.19 3271.01 1411.56 3268.79 1411.56C3255.43 1427.55 3240.86 1440.29 3225.1 1449.77 3209.33 1459.26 3190.68 1464 3169.16 1464 3135.4 1464 3111 1453.03 3095.97 1431.08 3080.95 1409.14 3073.43 1378.46 3073.43 1339.03ZM2930.75 1143.78 3012.01 1143.78 3012.01 1456.19 2930.75 1456.19ZM3585.38 1135.97C3607.64 1135.97 3625.64 1140.61 3639.37 1149.91 3653.1 1159.21 3663.67 1172.79 3671.09 1190.64 3685.19 1175.02 3700.12 1162 3715.89 1151.59 3731.66 1141.17 3749.75 1135.97 3770.16 1135.97 3803.92 1135.97 3828.5 1147.03 3843.9 1169.16 3859.3 1191.29 3867 1222.06 3867 1261.49L3867 1456.19 3785.19 1456.19 3785.19 1271.53C3785.19 1246.98 3781.66 1229.97 3774.61 1220.48 3767.56 1211 3756.62 1206.26 3741.77 1206.26 3723.96 1206.26 3703.93 1217.97 3681.67 1241.41L3681.67 1456.19 3599.85 1456.19 3599.85 1271.53C3599.85 1246.98 3596.33 1229.97 3589.28 1220.48 3582.23 1211 3571.28 1206.26 3556.44 1206.26 3538.63 1206.26 3518.59 1217.97 3496.33 1241.41L3496.33 1456.19 3415.07 1456.19 3415.07 1143.78 3481.86 1143.78 3487.43 1185.62 3489.65 1185.62C3502.64 1171.86 3516.74 1160.14 3531.95 1150.47 3547.16 1140.8 3564.97 1135.97 3585.38 1135.97ZM2872.44 1135.97C2880.98 1135.97 2888.03 1136.62 2893.59 1137.92 2899.16 1139.22 2904.35 1140.8 2909.18 1142.66L2894.7 1213.51C2889.51 1211.65 2884.41 1210.35 2879.4 1209.61 2874.39 1208.86 2868.73 1208.49 2862.42 1208.49 2850.18 1208.49 2837.38 1213.05 2824.02 1222.16 2810.66 1231.27 2799.53 1247.17 2790.63 1269.86L2790.63 1456.19 2709.37 1456.19 2709.37 1143.78 2776.16 1143.78 2781.72 1199.01 2783.95 1199.01C2795.45 1178.55 2808.9 1162.93 2824.3 1152.14 2839.7 1141.36 2855.75 1135.97 2872.44 1135.97ZM2525.95 1135.97C2547.47 1135.97 2566.3 1139.68 2582.44 1147.12 2598.58 1154.56 2612.13 1164.98 2623.07 1178.36 2634.02 1191.75 2642.27 1207.56 2647.84 1225.78 2653.41 1244.01 2656.19 1263.91 2656.19 1285.48 2656.19 1292.92 2655.82 1300.08 2655.07 1306.96 2654.33 1313.84 2653.41 1319.14 2652.29 1322.86L2460.28 1322.86C2463.62 1348.52 2472.99 1367.95 2488.39 1381.15 2503.78 1394.36 2523.17 1400.96 2546.55 1400.96 2559.53 1400.96 2571.68 1399.1 2583 1395.38 2594.32 1391.66 2605.54 1386.27 2616.67 1379.2L2644.5 1429.41C2628.92 1440.2 2611.85 1448.66 2593.3 1454.79 2574.74 1460.93 2555.45 1464 2535.41 1464 2513.89 1464 2493.67 1460.28 2474.75 1452.84 2455.83 1445.4 2439.41 1434.71 2425.49 1420.76 2411.58 1406.82 2400.63 1389.71 2392.66 1369.44 2384.68 1349.17 2380.69 1326.2 2380.69 1300.54 2380.69 1275.25 2384.77 1252.47 2392.94 1232.2 2401.1 1211.93 2411.95 1194.64 2425.49 1180.32 2439.04 1166 2454.53 1155.03 2471.97 1147.4 2489.41 1139.78 2507.4 1135.97 2525.95 1135.97ZM1917.83 1135.97C1937.12 1135.97 1954.19 1139.31 1969.03 1146.01 1983.88 1152.7 1997.05 1160.88 2008.55 1170.55L1969.59 1223.55C1961.8 1216.86 1954.1 1211.74 1946.49 1208.21 1938.89 1204.68 1930.63 1202.91 1921.73 1202.91 1897.98 1202.91 1878.78 1211.65 1864.12 1229.13 1849.47 1246.61 1842.14 1270.41 1842.14 1300.54 1842.14 1312.44 1843.62 1324.16 1846.59 1335.69 1849.56 1347.22 1854.2 1357.54 1860.5 1366.65 1866.81 1375.76 1874.88 1383.11 1884.71 1388.69 1894.55 1394.26 1906.14 1397.05 1919.5 1397.05 1930.63 1397.05 1941.39 1394.73 1951.78 1390.08 1962.17 1385.43 1971.63 1379.39 1980.16 1371.95L2012.45 1426.06C1997.6 1439.08 1981.37 1448.66 1963.75 1454.79 1946.12 1460.93 1928.4 1464 1910.59 1464 1889.07 1464 1869.04 1460.28 1850.49 1452.84 1831.93 1445.4 1815.89 1434.71 1802.34 1420.76 1788.8 1406.82 1778.13 1389.71 1770.34 1369.44 1762.55 1349.17 1758.65 1326.2 1758.65 1300.54 1758.65 1274.51 1763.01 1251.26 1771.73 1230.81 1780.45 1210.35 1792.05 1193.15 1806.52 1179.2 1820.99 1165.25 1837.87 1154.56 1857.16 1147.12 1876.46 1139.68 1896.68 1135.97 1917.83 1135.97ZM1567.54 1105.84C1562.35 1128.53 1556.78 1151.31 1550.85 1174.18 1544.91 1197.05 1538.79 1219.28 1532.48 1240.85L1520.24 1286.04 1618.19 1286.04 1605.95 1240.85C1599.64 1219.28 1593.61 1196.96 1587.86 1173.9 1582.11 1150.84 1576.08 1128.16 1569.77 1105.84ZM1521.9 1043.36 1618.75 1043.36 1751.21 1456.19 1664.94 1456.19 1636 1350.19 1502.43 1350.19 1473.48 1456.19 1390 1456.19ZM2931.31 1014.35 3012.56 1014.35 3012.56 1093.57 2931.31 1093.57ZM2058.23 1011 2139.49 1011 2139.49 1123.13 2136.15 1181.71C2148.77 1169.81 2162.96 1159.21 2178.73 1149.91 2194.5 1140.61 2212.96 1135.97 2234.1 1135.97 2267.87 1135.97 2292.36 1147.03 2307.57 1169.16 2322.78 1191.29 2330.39 1222.06 2330.39 1261.49L2330.39 1456.19 2248.58 1456.19 2248.58 1271.53C2248.58 1246.98 2245.14 1229.97 2238.28 1220.48 2231.41 1211 2220.19 1206.26 2204.61 1206.26 2191.62 1206.26 2180.49 1209.23 2171.21 1215.18 2161.94 1221.14 2151.36 1229.88 2139.49 1241.41L2139.49 1456.19 2058.23 1456.19Z" fill-rule="evenodd"/></g></svg>