<svg width="1300" height="1300" xmlns="http://www.w3.org/2000/svg" xmlns:xlink="http://www.w3.org/1999/xlink" xml:space="preserve" overflow="hidden"><defs><clipPath id="clip0"><rect x="0" y="14" width="1300" height="1300"/></clipPath></defs><g clip-path="url(#clip0)" transform="matrix(1 0 0 1 0 -14)"><rect x="0" y="14.0001" width="1299" height="1300" fill="#FFFFFF" fill-opacity="0"/><path d="M0 325 146.692 0 985 0 838.308 325Z" fill="#B100FF" fill-rule="evenodd" fill-opacity="0.501961" transform="matrix(6.12323e-17 1 1 -6.12323e-17 0.000180446 329)"/><path d="M325 329 650 475.692 650 1314 325 1167.31Z" fill="#B100FF" fill-rule="evenodd" fill-opacity="0.2"/><path d="M0 325 146.692 0 985 0 838.308 325Z" fill="#B100FF" fill-rule="evenodd" fill-opacity="0.501961" transform="matrix(6.12323e-17 1 1 -6.12323e-17 650 329)"/><path d="M975 329 1299 475.241 1299 1314 975 1167.76Z" fill="#B100FF" fill-rule="evenodd" fill-opacity="0.2"/><path d="M1159.7 14.2067 1299.37 94.8468 855.855 863.045 855.854 863.045 716.501 943.132 716.182 782.405 716.182 782.405Z" fill="#B100FF" fill-rule="evenodd"/></g></svg>