<svg width="1299" height="1299" xmlns="http://www.w3.org/2000/svg" xmlns:xlink="http://www.w3.org/1999/xlink" xml:space="preserve" overflow="hidden"><g><rect x="0" y="0" width="1299" height="1299" fill="#B100FF"/><path d="M430.08 410.637 430.08 410.686 650 510.643 781.454 450.895 719.133 558.84 650.053 590.237 650.053 590.286 650 590.262 649.947 590.286 649.947 590.237 430.026 490.28 283.352 556.946 283.352 955.042 429.973 888.4 429.973 888.351 430.026 888.376 430.08 888.351 430.08 888.4 650 988.357 869.92 888.4 869.92 888.352 869.973 888.376 870.027 888.351 870.027 888.4 1016.54 954.994 1016.54 556.898 980.242 540.399 1016.65 477.331 1090 510.668 1090 590.286 1089.89 590.237 1089.89 988.333 1090 988.382 1090 1068 869.973 967.994 650.053 1067.95 650.053 1068 650 1067.98 649.947 1068 649.947 1067.95 430.026 967.994 210 1068 210 988.381 210.001 988.381 210.001 590.285 210 590.286 210 510.667 429.973 410.686 429.973 410.637 430.026 410.662ZM995.406 188 1090 242.613 789.627 762.875 789.626 762.874 695.249 817.113 695.034 708.261 695.034 708.261Z" fill="#FFFFFF" fill-rule="evenodd"/></g></svg>