<svg width="2123" height="308" xmlns="http://www.w3.org/2000/svg" xmlns:xlink="http://www.w3.org/1999/xlink" xml:space="preserve" overflow="hidden"><defs><clipPath id="clip0"><rect x="-412" y="499" width="2123" height="308"/></clipPath></defs><g clip-path="url(#clip0)" transform="translate(412 -499)"><path d="M1311.68 704.602 1311.68 734.76 1425.63 734.76 1425.63 704.602ZM40.6096 690.495 73.7253 690.495 73.7253 733.787 225.667 733.787 225.667 761.027 40.6096 761.027ZM1501.59 685.631 1534.71 685.631 1534.71 733.787 1686.65 733.787 1686.65 761.027 1501.59 761.027ZM1278.56 678.334 1458.75 678.334 1458.75 761.027 1278.56 761.027ZM89.309 614.612C81.5175 614.612 75.349 616.234 70.8035 619.477 66.2579 622.719 63.9855 627.34 63.9855 633.34 63.9855 639.339 66.2579 643.96 70.8035 647.203 75.349 650.445 81.5175 652.067 89.309 652.067L106.354 652.067C114.47 652.067 120.72 650.445 125.103 647.203 129.486 643.96 131.678 639.339 131.678 633.34 131.678 627.34 129.486 622.719 125.103 619.477 120.72 616.234 114.47 614.612 106.354 614.612ZM84.6826 588.345 110.98 588.345C118.773 588.345 125.955 589.278 132.53 591.142 139.104 593.006 144.786 595.803 149.574 599.533 154.363 603.262 158.097 607.965 160.776 613.639 163.454 619.314 164.793 625.881 164.793 633.34 164.793 640.961 163.454 647.568 160.776 653.162 158.097 658.756 154.363 663.417 149.574 667.146 144.786 670.876 139.104 673.673 132.53 675.537 125.955 677.402 118.773 678.334 110.98 678.334L84.6826 678.334C76.8911 678.334 69.7077 677.402 63.1336 675.537 56.5588 673.673 50.8774 670.876 46.0886 667.146 41.2998 663.417 37.5661 658.756 34.8874 653.162 32.2094 647.568 30.8697 640.961 30.8697 633.34 30.8697 625.881 32.2094 619.314 34.8874 613.639 37.5661 607.965 41.2998 603.262 46.0886 599.533 50.8774 595.803 56.5588 593.006 63.1336 591.142 69.7077 589.278 76.8911 588.345 84.6826 588.345ZM1539.82 573.509 1539.82 638.934 1580.73 638.934 1580.73 573.509ZM1043.36 551.863 1223.54 551.863 1223.54 721.87 1244.24 721.87 1244.24 749.84 1027.53 749.84 1027.53 721.87 1190.43 721.87 1190.43 580.076 1043.36 580.076ZM493.975 550.89 626.438 550.89 626.438 578.617 578.712 578.617 578.712 627.503C578.712 638.042 579.807 648.054 581.999 657.539 584.191 667.025 587.437 675.74 591.739 683.685 596.041 691.63 601.276 698.562 607.445 704.48 613.613 710.398 620.755 715.06 628.872 718.465L628.872 748.38C622.379 746.435 615.845 743.597 609.271 739.867 602.696 736.138 596.406 731.76 590.4 726.734 584.394 721.708 578.956 716.276 574.085 710.439 569.216 704.602 565.239 698.521 562.154 692.198 554.687 706.953 544.744 719.154 532.326 728.801 519.908 738.449 506.312 745.219 491.54 749.11L491.54 719.194C499.494 716.762 506.759 712.79 513.333 707.277 519.908 701.764 525.467 695.075 530.012 687.211 534.558 679.348 538.088 670.349 540.605 660.215 543.121 650.081 544.379 639.177 544.379 627.503L544.379 578.617 493.975 578.617ZM736.485 549.431 917.89 549.431 917.89 577.157 769.601 577.157 769.601 653.283 921.543 653.283 921.543 681.01 846.302 681.01 846.302 725.761 934.935 725.761 934.935 753.731 718.223 753.731 718.223 725.761 811.725 725.761 811.725 681.01 736.485 681.01ZM1486.01 547.242 1634.05 547.242 1634.05 573.509 1613.84 573.509 1613.84 638.934 1636.49 638.934 1636.49 665.201 1483.57 665.201 1483.57 638.934 1506.71 638.934 1506.71 573.509 1486.01 573.509ZM1262.73 547.242 1391.54 547.242 1391.54 616.314 1295.85 616.314 1295.85 636.745 1411.02 636.745 1411.02 662.525 1262.73 662.525 1262.73 591.264 1358.43 591.264 1358.43 573.023 1262.73 573.023ZM270.945 545.782 458.438 545.782 458.438 627.016 474.265 627.016 474.265 653.04 380.762 653.04 380.762 680.766 458.438 680.766 458.438 762 425.322 762 425.322 708.007 270.945 708.007 270.945 680.766 346.186 680.766 346.186 653.04 257.553 653.04 257.553 627.016 425.322 627.016 425.322 573.023 270.945 573.023ZM1648.66 544.809 1681.78 544.809 1681.78 590.777 1711 590.777 1711 620.45 1681.78 620.45 1681.78 703.872 1648.66 703.872ZM1425.63 544.809 1458.75 544.809 1458.75 669.822 1425.63 669.822ZM655.657 544.809 688.772 544.809 688.772 762 655.657 762ZM187.682 544.809 220.798 544.809 220.798 604.154 250.017 604.154 250.017 633.826 220.798 633.826 220.798 703.872 187.682 703.872ZM80.2994 538 115.364 538 115.364 555.755 169.664 555.755 169.664 580.805 26.0001 580.805 26.0001 555.755 80.2994 555.755Z" fill="#B100FF" fill-rule="evenodd"/><rect x="-412" y="499" width="307" height="308" fill="#FFFFFF" fill-opacity="0"/><path d="M0 77 34.7546 0 233 0 198.245 77Z" fill="#B100FF" fill-rule="evenodd" fill-opacity="0.501961" transform="matrix(6.12323e-17 1 1 -6.12323e-17 -412 574)"/><path d="M-335 574-258 608.755-258 807-335 772.246Z" fill="#B100FF" fill-rule="evenodd" fill-opacity="0.2"/><path d="M0 77 34.7546 0 233 0 198.245 77Z" fill="#B100FF" fill-rule="evenodd" fill-opacity="0.501961" transform="matrix(6.12323e-17 1 1 -6.12323e-17 -258 574)"/><path d="M-181 574-105 608.304-105 807-181 772.697Z" fill="#B100FF" fill-rule="evenodd" fill-opacity="0.2"/><path d="M-137.659 499.499-104.649 518.558-209.469 700.112-209.469 700.112-242.404 719.04-242.479 681.054-242.479 681.054Z" fill="#B100FF" fill-rule="evenodd"/></g></svg>