<svg width="1299" height="1299" xmlns="http://www.w3.org/2000/svg" xmlns:xlink="http://www.w3.org/1999/xlink" xml:space="preserve" overflow="hidden"><defs><clipPath id="clip0"><rect x="0" y="0" width="1299" height="1299"/></clipPath></defs><g clip-path="url(#clip0)"><path d="M0 649.5C-8.269e-14 290.791 290.791-8.269e-14 649.5-1.6538e-13 1008.21-3.3076e-13 1299 290.791 1299 649.5 1299 1008.21 1008.21 1299 649.5 1299 290.791 1299-4.1345e-13 1008.21 0 649.5Z" fill="#FFFFFF" fill-rule="evenodd"/><path d="M289 289 289.001 289 289.001 289 307.578 289.47C498.319 299.139 650 456.856 650 650 650 843.144 498.319 1000.86 307.578 1010.53L289.001 1011 289.001 1011 289 1011C289 817.856 440.681 660.138 631.423 650.47L649.999 650 631.423 649.53C440.681 639.862 289 482.144 289 289ZM1011 289 1011 289 1011 289C1011 482.144 859.319 639.862 668.578 649.53L650.001 650 668.578 650.47C859.319 660.138 1011 817.856 1011 1011L1011 1011 1011 1011 992.422 1010.53C801.681 1000.86 650 843.144 650 650 650 456.856 801.681 299.139 992.422 289.47Z" fill="#8516C4" fill-rule="evenodd"/></g></svg>